<svg id="Layer_1" data-name="Layer 1" xmlns="http://www.w3.org/2000/svg" viewBox="0 0 64 64"><defs><style>.cls-1{fill:none}.cls-2{clip-path:url(#clip-path)}.cls-3{fill:#efce4a}.cls-4{fill:#f4efdc}.cls-5{fill:#ebba16}.cls-6{fill:#d1bf86}.cls-7{fill:#bfbaa5}.cls-8{fill:#cec9ae}</style><clipPath id="clip-path"><path class="cls-1" d="M0 14.37h59.74V64H0z"/></clipPath></defs><title>icons</title><g class="cls-2"><path class="cls-3" d="M47.31 62.78H1.6a1.6 1.6 0 0 1-1.55-2L10.44 32.3A1.6 1.6 0 0 1 12 31.12h45.69c1.05 0 1.54 1 1.54 2L48.85 61.59a1.59 1.59 0 0 1-1.54 1.18zm0 0"/></g><path class="cls-4" d="M10.44 32.3A1.6 1.6 0 0 1 12 31.12h42.13V24H9.19l-6.13 6.09v22.42zm0 0"/><path class="cls-5" d="M24.07 19.88l-3.64-5.11H1.77A1.77 1.77 0 0 0 0 16.55v43.63h.21l2.85-7.78V30.09l2-2v-8.21zm0 0"/><path class="cls-6" d="M5.11 19.88V28l4.08-4h42.9v-4.12zm0 0"/><path class="cls-7" d="M28.59 29.07h2.05v2.05h-2.05zm7.15 0h2.05v2.05h-2.05zm7.16 0h2.04v2.05H42.9zm-28.6 0h2.05v2.05H14.3zm7.15 0h2.04v2.05h-2.04z"/><path class="cls-8" d="M9.19 30.09V24l-6.13 6.09zm0 0"/></svg>