<svg id="Layer_1" data-name="Layer 1" xmlns="http://www.w3.org/2000/svg" viewBox="0 0 64 64"><defs><style>.cls-1{fill:#424a60}.cls-2{fill:#e7eced}.cls-3{fill:#556080}.cls-4{fill:#fff}.cls-5{fill:#3083c9}</style></defs><title>icons</title><path class="cls-1" d="M35.25 6.51a1.11 1.11 0 0 1-.65-.22 1.08 1.08 0 0 1-.22-1.52L37.64.44a1.09 1.09 0 0 1 1.74 1.3l-3.26 4.34a1.07 1.07 0 0 1-.87.44zm0 0"/><path class="cls-2" d="M50.44 5.43H13.56a2.18 2.18 0 0 0-2.17 2.17v54.23A2.17 2.17 0 0 0 13.56 64h36.88a2.17 2.17 0 0 0 2.17-2.17V7.6a2.17 2.17 0 0 0-2.17-2.17zM32 15.19a3.25 3.25 0 1 1 3.26-3.25A3.25 3.25 0 0 1 32 15.19zm0 0"/><path class="cls-3" d="M11.39 44.48v17.35A2.17 2.17 0 0 0 13.56 64h36.88a2.17 2.17 0 0 0 2.17-2.17V44.48zm0 0"/><path class="cls-4" d="M22.24 55.32h19.52a1.09 1.09 0 0 0 0-2.17H22.24a1.09 1.09 0 0 0 0 2.17zM26.58 51h10.84a1.09 1.09 0 0 0 0-2.17H26.58a1.09 1.09 0 0 0 0 2.17zm-3.26 6.49h-1.08a1.09 1.09 0 0 0 0 2.17h1.09a1.09 1.09 0 1 0 0-2.17zm6.51 0h-2.17a1.09 1.09 0 1 0 0 2.17h2.17a1.09 1.09 0 0 0 0-2.17zm5.43 0h-1.09a1.09 1.09 0 1 0 0 2.17h1.09a1.09 1.09 0 0 0 0-2.17zm6.5 0H39.6a1.09 1.09 0 0 0 0 2.17h2.17a1.09 1.09 0 0 0 0-2.17zm0 0"/><path class="cls-5" d="M41.76 44.48a3.54 3.54 0 0 0-2-3.1l-4.09-2.09a.84.84 0 0 1-.45-.75v-1.25a6.87 6.87 0 0 0 3.89-4.85 2.17 2.17 0 0 0 1.54-2.07v-1.08a2.17 2.17 0 0 0-1.17-1.91C39 23.3 36.33 21.65 32 21.65h-.6a6.53 6.53 0 0 1-4.19-1A5.57 5.57 0 0 1 26 19.59a.22.22 0 0 0-.39.16c0 .38.11.82.2 1.3.36 1.8.15 1.54-.55 3.24a11.43 11.43 0 0 0-.75 3.09 2.17 2.17 0 0 0-1.16 1.91v1.08a2.17 2.17 0 0 0 1.54 2.07 6.84 6.84 0 0 0 3.89 4.85v1.24a.83.83 0 0 1-.47.75l-4.19 2.07a3.55 3.55 0 0 0-1.85 3.12h19.49zm0 0"/><path class="cls-1" d="M32 13a1.08 1.08 0 0 1-1-.6L25.61 1.57a1.08 1.08 0 1 1 1.94-1L33 11.45a1.09 1.09 0 0 1-.48 1.46A1.1 1.1 0 0 1 32 13zm0 0"/></svg>