<svg id="Layer_1" data-name="Layer 1" xmlns="http://www.w3.org/2000/svg" viewBox="0 0 64 64"><defs><style>.cls-1,.cls-4{fill:none}.cls-2{fill:#7fabda}.cls-3{clip-path:url(#clip-path)}.cls-4{stroke:#88c057;stroke-linecap:round;stroke-miterlimit:10;stroke-width:1.6px}.cls-5{fill:#e7eced}.cls-6{fill:#fff}.cls-7{fill:#424a60}</style><clipPath id="clip-path"><path class="cls-1" d="M.64 0h62.71v64H.64z"/></clipPath></defs><title>icons</title><path class="cls-2" d="M29.59 4.18v24.23h29.58a3.65 3.65 0 0 1 3.65 3.65V4.18A3.65 3.65 0 0 0 59.17.54H33.24a3.65 3.65 0 0 0-3.65 3.65zm0 0"/><g class="cls-3"><path class="cls-4" d="M15.65 8A12.85 12.85 0 0 0 2.79 20.9m11.79-6.43L21 8m0 0l-6.42-6.39M21 8h-5.35"/></g><path class="cls-5" d="M62.82 32.06v27a3.65 3.65 0 0 1-3.65 3.65H4.29a3.65 3.65 0 0 1-3.65-3.65v-27a3.65 3.65 0 0 1 3.65-3.65h54.88a3.65 3.65 0 0 1 3.65 3.65zm0 0"/><path class="cls-6" d="M60.68 45.56a3.22 3.22 0 1 1-3.22-3.22 3.22 3.22 0 0 1 3.22 3.22zm0 0"/><path class="cls-7" d="M4.93 45.56v4.29a1.07 1.07 0 1 1-2.14 0v-4.29a1.07 1.07 0 1 1 2.14 0zm0-4.29v1.07a1.07 1.07 0 1 1-2.14 0v-1.07a1.07 1.07 0 0 1 2.14 0zm2.15-12.86H52.1v34.3H7.08z"/><path class="cls-5" d="M29.59 4.18V7h33.23V4.18A3.65 3.65 0 0 0 59.17.54H33.24a3.65 3.65 0 0 0-3.65 3.65zm0 0"/></svg>