<svg id="Layer_1" data-name="Layer 1" xmlns="http://www.w3.org/2000/svg" viewBox="0 0 64 64"><defs><style>.cls-1{fill:none}.cls-2{fill:#c8d2d6}.cls-3{fill:#e7eced}.cls-4{fill:#7383bf}.cls-5{fill:#fbce9d}.cls-6{fill:#f7b563}.cls-7{clip-path:url(#clip-path)}.cls-8{fill:#424a60}.cls-9{fill:#fff}</style><clipPath id="clip-path"><path class="cls-1" d="M8.68 0h46.63v64H8.68z"/></clipPath></defs><title>icons</title><path class="cls-2" d="M28.36 50.92h25.73v11.79H28.36z"/><path class="cls-3" d="M45.51 62.71H28.36V50.92h10.1a7 7 0 0 1 7 7zm0 0"/><path class="cls-4" d="M41.22 56.82a2.68 2.68 0 1 1-2.68-2.68 2.68 2.68 0 0 1 2.68 2.68zm0 0"/><path class="cls-5" d="M36.83 12a3.75 3.75 0 1 0-4.94-4.94zm0 0"/><path class="cls-5" d="M42.19 17.37a3.75 3.75 0 1 0-4.94-4.94zm0 0"/><path class="cls-5" d="M47.56 22.73a3.75 3.75 0 1 0-4.94-4.94zm0 0"/><path class="cls-5" d="M52.92 28.09A3.75 3.75 0 1 0 48 23.15zM31 35.91H20.32a3.75 3.75 0 1 1 0-7.5H31a3.75 3.75 0 1 1 0 7.5zm0 0"/><path class="cls-6" d="M53.16 34.37L41.24 46.29a2.46 2.46 0 0 1-3.48 0L27.39 35.91h-7.07c-.62.3-2.31-.79-1.66-.23l11.59 11.54c.08.08.17.14.26.21v3.49h21.44v-4.83a8 8 0 0 0 1.21-11.71zm0 0"/><g class="cls-7"><path class="cls-8" d="M28.46 3.63L11.78 20.31l8.14 8.14a3.2 3.2 0 0 1 .4 0H31a3.75 3.75 0 1 1 0 7.5h-3.62l6.82 6.82L50.87 26zm0 0"/><path class="cls-3" d="M28.46 3.63l-2.38-2.37a2.46 2.46 0 0 0-3.48 0L9.41 14.45a2.46 2.46 0 0 0 0 3.48l2.38 2.38zm25.98 25.98L50.87 26 34.2 42.73l3.56 3.57a2.46 2.46 0 0 0 3.48 0l13.2-13.2a2.46 2.46 0 0 0 0-3.48zm0 0"/></g><path class="cls-9" d="M47.12 36.45A2.14 2.14 0 1 1 45 34.3a2.14 2.14 0 0 1 2.15 2.15zm0 0"/><path class="cls-8" d="M17.64 12.33a1.07 1.07 0 0 1-.76-1.83L19 8.36a1.07 1.07 0 0 1 1.51 1.51L18.4 12a1.07 1.07 0 0 1-.76.31zm0 0"/></svg>