<svg id="Layer_1" data-name="Layer 1" xmlns="http://www.w3.org/2000/svg" viewBox="0 0 64 64"><defs><style>.cls-1{fill:#edeada}.cls-2{fill:#cec9ae}.cls-3{fill:#d75a4a}</style></defs><title>icons</title><path class="cls-1" d="M30.34 4.41V30.9l-8.83-6.62-8.82 6.62V4.41H5V64h54V4.41zm0 0"/><path class="cls-2" d="M51.31 38.62H12.69a1.1 1.1 0 1 0 0 2.21h38.62a1.1 1.1 0 0 0 0-2.21zm0-7.72H37a1.1 1.1 0 1 0 0 2.21h14.31a1.1 1.1 0 0 0 0-2.21zm0-7.73H37a1.1 1.1 0 1 0 0 2.2h14.31a1.1 1.1 0 0 0 0-2.2zM37 17.66h14.31a1.1 1.1 0 0 0 0-2.21H37a1.1 1.1 0 1 0 0 2.21zm14.31 34.21H12.69a1.1 1.1 0 1 0 0 2.2h38.62a1.1 1.1 0 0 0 0-2.2zm-38.62-4.42h15.45a1.1 1.1 0 1 0 0-2.2H12.69a1.1 1.1 0 1 0 0 2.2zm38.62-2.21H37a1.1 1.1 0 1 0 0 2.2h14.31a1.1 1.1 0 0 0 0-2.2zm-17.98 1.89a1.15 1.15 0 0 0 .32-.78 1.12 1.12 0 0 0-.32-.78 1.13 1.13 0 0 0-1.56 0 1.11 1.11 0 0 0 0 1.57 1.11 1.11 0 0 0 .78.32 1.15 1.15 0 0 0 .78-.32zm0 0"/><path class="cls-3" d="M30.34 30.9l-8.83-6.62-8.82 6.62V0h17.65zm0 0"/></svg>