<svg id="Layer_1" data-name="Layer 1" xmlns="http://www.w3.org/2000/svg" viewBox="0 0 64 64"><defs><style>.cls-1{fill:#e7eced}.cls-2{fill:#bf4d90}.cls-3{fill:#afb6bb}</style></defs><title>icons</title><path class="cls-1" d="M60.46 55.17H3.55A3.55 3.55 0 0 1 0 51.62V12.38a3.55 3.55 0 0 1 3.55-3.55h56.9A3.55 3.55 0 0 1 64 12.38v39.24a3.55 3.55 0 0 1-3.54 3.55zm0 0"/><path class="cls-2" d="M23.38 39.88l-4.16-2.12a.85.85 0 0 1-.46-.75v-1.29a7 7 0 0 0 4-4.94 2.21 2.21 0 0 0 1.56-2.1v-1.1a2.21 2.21 0 0 0-1.19-1.95c-.48-4.15-3.23-5.83-7.64-5.83h-.61a6.64 6.64 0 0 1-4.26-1 5.66 5.66 0 0 1-1.26-1.11.22.22 0 0 0-.39.16c0 .38.11.84.2 1.33.37 1.83.15 1.57-.56 3.29a11.63 11.63 0 0 0-.76 3.14 2.21 2.21 0 0 0-1.18 1.95v1.1a2.21 2.21 0 0 0 1.56 2.1 7 7 0 0 0 4 4.94V37a.84.84 0 0 1-.47.76L7.4 39.85A3.6 3.6 0 0 0 5.52 43v1.46c0 1.25 4.45 1.85 9.93 1.85s9.93-.61 9.93-1.85v-1.35a3.61 3.61 0 0 0-2-3.24zm0 0"/><path class="cls-3" d="M32 24.27h11a1.1 1.1 0 1 0 0-2.2H32a1.1 1.1 0 1 0 0 2.2zm15.45 0h1.1a1.1 1.1 0 1 0 0-2.2h-1.1a1.1 1.1 0 0 0 0 2.2zM33.1 40.83H32A1.1 1.1 0 0 0 32 43h1.1a1.1 1.1 0 0 0 0-2.21zm6.63 0h-2.21a1.1 1.1 0 0 0 0 2.21h2.21a1.1 1.1 0 0 0 0-2.21zm5.51 0h-1.1a1.1 1.1 0 0 0 0 2.21h1.1a1.1 1.1 0 1 0 0-2.21zm6.63 0h-2.21a1.1 1.1 0 1 0 0 2.21h2.21a1.1 1.1 0 0 0 0-2.21zm3.62.32a1.12 1.12 0 0 0 0 1.56 1.17 1.17 0 0 0 .79.32 1.11 1.11 0 1 0-.79-1.89zM32 30.9h24.28a1.1 1.1 0 1 0 0-2.21H32a1.1 1.1 0 1 0 0 2.21zm24.28 4.41H32a1.1 1.1 0 0 0 0 2.21h24.28a1.1 1.1 0 1 0 0-2.21zm0 0"/></svg>