<svg id="Layer_1" data-name="Layer 1" xmlns="http://www.w3.org/2000/svg" viewBox="0 0 64 64"><defs><style>.cls-1,.cls-3{fill:none}.cls-2{clip-path:url(#clip-path)}.cls-3{stroke:#d8a852;stroke-linecap:round;stroke-linejoin:round;stroke-width:3.2px}.cls-4{fill:#e7eced}.cls-5{fill:#c7cac7}.cls-6{fill:#424a60}</style><clipPath id="clip-path"><path class="cls-1" d="M11.26 0h41.49v64H11.26z"/></clipPath></defs><title>icons</title><g class="cls-2"><path class="cls-3" d="M42.34 25V12.57c0-5.44-4.82-9.88-10.72-9.88S20.9 7.13 20.9 12.57V25"/></g><path class="cls-4" d="M52 42.34A20.37 20.37 0 1 1 31.62 22 20.37 20.37 0 0 1 52 42.34zm0 0"/><path class="cls-5" d="M52 42.34A20.37 20.37 0 0 0 31.62 22v40.71A20.37 20.37 0 0 0 52 42.34zm0 0"/><path class="cls-6" d="M31.62 47.7a3.22 3.22 0 0 1-3.21-3.21v-6.43a3.22 3.22 0 0 1 6.43 0v6.43a3.23 3.23 0 0 1-3.22 3.21zm0 0"/></svg>