<svg id="Layer_1" data-name="Layer 1" xmlns="http://www.w3.org/2000/svg" viewBox="0 0 64 64"><defs><style>.cls-1{fill:#edeada}.cls-2{fill:#cec9ae}</style></defs><title>icons</title><path class="cls-1" d="M56.83 15.45L41.38 0H7.17v64h49.66zm0 0"/><path class="cls-2" d="M41.38 0v15.45h15.45zM17.1 17.66H27a1.1 1.1 0 1 0 0-2.21h-9.9a1.1 1.1 0 1 0 0 2.21zm18.76 22.07H17.1a1.1 1.1 0 1 0 0 2.2h18.76a1.1 1.1 0 1 0 0-2.2zM46.9 32h-7.73a1.1 1.1 0 1 0 0 2.21h7.73a1.1 1.1 0 1 0 0-2.21zm-29.8-5.52h5.52a1.1 1.1 0 1 0 0-2.2H17.1a1.1 1.1 0 1 0 0 2.2zm16.55 0h7.73a1.1 1.1 0 1 0 0-2.2h-7.73a1.1 1.1 0 1 0 0 2.2zM27 25.38a1.11 1.11 0 0 0 1.89.79 1.13 1.13 0 0 0 0-1.57 1.11 1.11 0 0 0-1.89.78zM22.62 32a1.1 1.1 0 1 0 0 2.21h11a1.1 1.1 0 1 0 0-2.21zm-5.52 2.21a1.11 1.11 0 0 0 .79-1.89 1.15 1.15 0 0 0-1.57 0 1.11 1.11 0 0 0-.32.78 1.11 1.11 0 0 0 1.1 1.1zm29.8 13.24h-7.73a1.1 1.1 0 0 0 0 2.21h7.73a1.1 1.1 0 0 0 0-2.21zm-13.25 0h-11a1.1 1.1 0 1 0 0 2.21h11a1.1 1.1 0 0 0 0-2.21zm-17.33.32a1.11 1.11 0 0 0 0 1.57 1.13 1.13 0 0 0 1.57 0 1.2 1.2 0 0 0 .32-.79 1.1 1.1 0 0 0-.32-.77 1.14 1.14 0 0 0-1.57 0zM46.9 26.48a1.15 1.15 0 0 0 .78-.32 1.11 1.11 0 0 0 0-1.57 1.15 1.15 0 0 0-1.57 0 1.1 1.1 0 0 0 .79 1.89zm-4.74 15.13A1.11 1.11 0 0 0 40.59 40a1.13 1.13 0 0 0 0 1.57 1.1 1.1 0 0 0 .79.32 1.13 1.13 0 0 0 .78-.32zM46.11 40a1.13 1.13 0 0 0 0 1.57 1.15 1.15 0 0 0 .79.32 1.13 1.13 0 0 0 .78-.32A1.11 1.11 0 0 0 46.11 40zm0 0"/></svg>