<svg id="Layer_1" data-name="Layer 1" xmlns="http://www.w3.org/2000/svg" viewBox="0 0 64 64"><defs><style>.cls-1{fill:#cb2027}.cls-2{fill:#f1f2f2}</style></defs><title>icons</title><path class="cls-1" d="M63.48 31.73A31.56 31.56 0 1 1 31.91.17a31.56 31.56 0 0 1 31.57 31.56zm0 0"/><path class="cls-2" d="M34.46 42.44c-2.38-.19-3.39-1.37-5.26-2.51-1 5.4-2.29 10.57-6 13.27-1.2-8.2 1.68-14.28 3-20.78-2.24-3.78.27-11.39 5-9.52 5.83 2.31-5 14.06 2.26 15.53 7.62 1.53 10.74-13.23 6-18-6.83-6.93-19.89-.16-18.28 9.77.39 2.43 2.9 3.16 1 6.51-4.37-1-5.68-4.42-5.51-9C17 20.14 23.44 14.87 30 14.14c8.24-.92 16 3 17 10.77 1.2 8.74-3.72 18.21-12.52 17.53zm0 0"/></svg>