<svg id="Layer_1" data-name="Layer 1" xmlns="http://www.w3.org/2000/svg" viewBox="0 0 64 64"><defs><style>.cls-1{fill:none}.cls-2{clip-path:url(#clip-path)}.cls-3{fill:#d75a4a}.cls-4{fill:#ed8a19}.cls-5{fill:#c7cac7}.cls-6{fill:#fbce9d}.cls-7{fill:#38454f}.cls-8{fill:#f2ecbf}.cls-9{fill:#ebba16}</style><clipPath id="clip-path"><path class="cls-1" d="M.7 0h62.6v64H.7z"/></clipPath></defs><title>icons</title><g class="cls-2"><path class="cls-3" d="M46.86 3.25a9.33 9.33 0 0 1 13.19 13.19zm0 0"/></g><path class="cls-4" d="M50.16 21.39L20 51.59l-.62 5.57 33.3-33.3zM12.74 50.56l5.56-.61 30.21-30.22-4.95-4.95L13.35 45zm29.18-37.42l-2.48-2.48L6.14 44l5.57-.62zm0 0"/><path class="cls-5" d="M57.58 18.91l2.48-2.47-13.2-13.19-2.47 2.47zM42.74 7.37L41.09 9l13.19 13.21 1.65-1.65zm0 0"/><path class="cls-6" d="M17.51 52.38l-6 .67h-.38l-.24-.08-.16-.1a1.54 1.54 0 0 1-.18-.16.73.73 0 0 1-.11-.15 1.08 1.08 0 0 1-.11-.21 1.06 1.06 0 0 1-.06-.19.49.49 0 0 1 0-.11.91.91 0 0 1 0-.13 1 1 0 0 1 0-.13l.67-6-6 .67h-.12a1.42 1.42 0 0 1-.27 0l-3.34 14L3.67 58a1.16 1.16 0 1 1 1.65 1.65l-2.46 2.44 14-3.34a1.19 1.19 0 0 1 0-.4zm0 0"/><path class="cls-7" d="M5.32 58a1.16 1.16 0 0 0-1.65 0l-2.45 2.44L.7 62.6l2.16-.52 2.45-2.45a1.17 1.17 0 0 0 0-1.65zm0 0"/><path class="cls-8" d="M57.58 18.91L44.39 5.72l-1.65 1.65 13.19 13.19zm0 0"/><path class="cls-9" d="M48.51 19.73L18.3 49.95l-5.56.61.61-5.56 30.21-30.21-1.65-1.65-30.2 30.21-5.57.65-1.32 1.29-.27 1.11a1.34 1.34 0 0 0 .27 0h.13l6-.67-.66 6a.81.81 0 0 1 0 .26.49.49 0 0 0 0 .11 1.06 1.06 0 0 0 .06.19 1.05 1.05 0 0 0 .23.36 1.22 1.22 0 0 0 .18.16l.16.1.24.08h.38l6-.67-.66 6a1.19 1.19 0 0 0 0 .4l1.12-.24 1.32-1.32.68-5.57 30.16-30.2zm0 0"/><path class="cls-8" d="M54.28 22.21L41.09 9l-1.65 1.65 13.19 13.21zm0 0"/></svg>