<svg id="Layer_1" data-name="Layer 1" xmlns="http://www.w3.org/2000/svg" viewBox="0 0 64 64"><defs><style>.cls-1{fill:none}.cls-2{clip-path:url(#clip-path)}.cls-3{fill:#efce4a}.cls-4{fill:#ebba16}</style><clipPath id="clip-path"><path class="cls-1" d="M0 14.37h59.74V64H0z"/></clipPath></defs><title>icons</title><g class="cls-2"><path class="cls-3" d="M47.31 62.78H1.6a1.6 1.6 0 0 1-1.55-2L10.44 32.3A1.6 1.6 0 0 1 12 31.12h45.69c1.05 0 1.54 1 1.54 2L48.85 61.59a1.59 1.59 0 0 1-1.54 1.18zm0 0"/></g><path class="cls-4" d="M51.34 21.93H25.53l-5.11-7.15H1.77A1.77 1.77 0 0 0 0 16.55v43.63h.21L10.44 32.3A1.6 1.6 0 0 1 12 31.12h41.11v-7.43a1.77 1.77 0 0 0-1.77-1.76zm0 0"/></svg>