<svg id="Layer_1" data-name="Layer 1" xmlns="http://www.w3.org/2000/svg" viewBox="0 0 64 64"><defs><style>.cls-1{fill:#f6f7fc}.cls-2{fill:#eb5c60}.cls-3{fill:#ecf0fa}.cls-4{fill:#d44c52}.cls-5{fill:#d3d8e9}.cls-6{fill:#bbc1da}</style></defs><title>icons</title><path class="cls-1" d="M61.79 60.69H2.21A2.21 2.21 0 0 1 0 58.48V7.72a2.21 2.21 0 0 1 2.21-2.2h59.58A2.21 2.21 0 0 1 64 7.72v50.76a2.21 2.21 0 0 1-2.21 2.21z"/><path class="cls-2" d="M64 16.55H0V7.72a2.21 2.21 0 0 1 2.21-2.2h59.58A2.21 2.21 0 0 1 64 7.72v8.83z"/><path class="cls-3" d="M0 16.55h64v2.21H0v-2.21z"/><path class="cls-4" d="M9.38 7.17a3.31 3.31 0 1 1-3.31 3.31 3.31 3.31 0 0 1 3.31-3.31z"/><path class="cls-5" d="M9.38 12.14a1.66 1.66 0 0 1-1.66-1.66V5a1.66 1.66 0 0 1 1.66-1.69A1.66 1.66 0 0 1 11 5v5.52a1.66 1.66 0 0 1-1.66 1.66z"/><path class="cls-6" d="M9.38 8.83a1.66 1.66 0 0 1-1.66-1.66v3.31a1.66 1.66 0 0 0 3.31 0V7.17a1.66 1.66 0 0 1-1.65 1.66z"/><path class="cls-4" d="M54.62 7.17a3.31 3.31 0 1 1-3.31 3.31 3.31 3.31 0 0 1 3.31-3.31z"/><path class="cls-5" d="M54.62 12.14A1.66 1.66 0 0 1 53 10.48V5a1.66 1.66 0 0 1 1.66-1.66A1.66 1.66 0 0 1 56.28 5v5.52a1.66 1.66 0 0 1-1.66 1.66z"/><path class="cls-6" d="M54.62 8.83A1.66 1.66 0 0 1 53 7.17v3.31a1.66 1.66 0 0 0 3.31 0V7.17a1.66 1.66 0 0 1-1.66 1.66z"/><path class="cls-2" d="M29.39 38.92a.12.12 0 0 1 0-.22 6.31 6.31 0 0 0 4.17-6.13c0-4.07-3.54-7-8.42-7-4.22 0-7.44 2.21-8.4 5.76a1.48 1.48 0 0 0 .25 1.3 1.44 1.44 0 0 0 1.16.57 1.46 1.46 0 0 0 1.41-1.1c.61-2.35 2.71-3.81 5.48-3.81 3.33 0 5.48 1.81 5.48 4.62s-2.3 4.82-5.59 4.82h-2a1.32 1.32 0 1 0 0 2.64H25c4.13 0 6.6 1.93 6.6 5.17 0 3-2.68 5.13-6.36 5.13-3.18 0-5.64-1.55-6.27-3.95a1.49 1.49 0 0 0-1.43-1.13 1.46 1.46 0 0 0-1.16.57 1.49 1.49 0 0 0-.26 1.3c.93 3.6 4.52 5.93 9.14 5.93 5.36 0 9.41-3.41 9.41-7.92a6.43 6.43 0 0 0-5.29-6.52zm15.77-12.98a3.67 3.67 0 0 0-2.07.64l-3 2.06-2.76 1.91a1.38 1.38 0 0 0 .13 2.36 1.35 1.35 0 0 0 1.41-.08c1.1-.75 4-2.82 4.83-3.37a.12.12 0 0 1 .19.11v21.91a1.47 1.47 0 0 0 2.93 0V27.61a1.68 1.68 0 0 0-1.69-1.67z"/></svg>