<svg id="Layer_1" data-name="Layer 1" xmlns="http://www.w3.org/2000/svg" viewBox="0 0 64 64"><defs><style>.cls-1{fill:#edeada}.cls-2{fill:#cec9ae}.cls-3{fill:#14a085}</style></defs><title>icons</title><path class="cls-1" d="M56.83 15.45L41.38 0H7.17v64h49.66zm0 0"/><path class="cls-2" d="M41.38 0v15.45h15.45zm4.41 24.28H28.14a1.1 1.1 0 1 1 0-2.21h17.65a1.1 1.1 0 1 1 0 2.21zm0 0"/><path class="cls-3" d="M19.31 25.38a1.1 1.1 0 0 1-.78-.32l-2.21-2.2a1.1 1.1 0 0 1 1.56-1.56l1.51 1.51L24.14 19a1.1 1.1 0 0 1 1.37 1.72L20 25.14a1.08 1.08 0 0 1-.68.24zm0 0"/><path class="cls-2" d="M45.79 36.41H28.14a1.1 1.1 0 1 1 0-2.2h17.65a1.1 1.1 0 1 1 0 2.2zm0 0"/><path class="cls-3" d="M19.31 37.52a1.1 1.1 0 0 1-.78-.32L16.32 35a1.11 1.11 0 1 1 1.56-1.56l1.51 1.51 4.75-3.8a1.1 1.1 0 0 1 1.37 1.72L20 37.27a1.08 1.08 0 0 1-.68.24zm0 0"/><path class="cls-2" d="M45.79 48.55H28.14a1.1 1.1 0 1 1 0-2.2h17.65a1.1 1.1 0 1 1 0 2.2zm0 0"/><path class="cls-3" d="M19.31 49.66a1.1 1.1 0 0 1-.78-.32l-2.21-2.21a1.1 1.1 0 1 1 1.56-1.56l1.51 1.51 4.75-3.8A1.1 1.1 0 0 1 25.51 45L20 49.41a1.09 1.09 0 0 1-.68.24zm0 0"/></svg>