<svg id="Layer_1" data-name="Layer 1" xmlns="http://www.w3.org/2000/svg" viewBox="0 0 64 64"><defs><style>.cls-1{fill:#7383bf}.cls-2{fill:#424a60}.cls-3{fill:#556080}.cls-4{fill:#7fabda}</style></defs><title>icons</title><path class="cls-1" d="M44.65 23.57A7.53 7.53 0 0 0 48 17.3v-12H16v12a7.53 7.53 0 0 0 3.35 6.27l10.51 7v2.84l-10.51 7A7.53 7.53 0 0 0 16 46.7v12h32v-12a7.53 7.53 0 0 0-3.35-6.27l-10.51-7v-2.85zm0 0"/><path class="cls-2" d="M42.87 20.91a4.33 4.33 0 0 0 1.93-3.6 3 3 0 0 0-2.3-2.94l-16.06-4A5.83 5.83 0 0 0 19.2 16v1.3a4.33 4.33 0 0 0 1.93 3.6l9.8 7.2V45a5.3 5.3 0 0 1-7.53 4.81 2.93 2.93 0 0 0-4.2 2.51v6.31h25.6v-12a3.41 3.41 0 0 0-4-3.19l-2.18.38a4.7 4.7 0 0 1-5.51-4.63V28.1zm-32.2 37.76h42.67v4.27H10.67z"/><path class="cls-3" d="M57.6 61.86h-3.2V57.6H9.6v4.27H6.4a1.07 1.07 0 0 0 0 2.13h51.2a1.07 1.07 0 0 0 0-2.14zm-45.87-2.13h40.54v2.13H11.73zm0 0"/><path class="cls-2" d="M10.67 1.07h42.67v4.27H10.67z"/><path class="cls-3" d="M57.6 0H6.4a1.07 1.07 0 0 0 0 2.14h3.2V6.4h44.8V2.14h3.2a1.07 1.07 0 0 0 0-2.14zm-5.33 4.27H11.73V2.14h40.54zm0 0"/><path class="cls-4" d="M26.67 25.6a1.08 1.08 0 0 1-.59-.18l-4.95-3.3a4.33 4.33 0 0 1-1.93-3.6v-2.37a1.07 1.07 0 0 1 2.14 0v2.37a2.2 2.2 0 0 0 1 1.83l4.95 3.3a1.07 1.07 0 0 1-.59 2zm17.06 23.47A1.07 1.07 0 0 1 42.67 48v-2.37a2.19 2.19 0 0 0-1-1.83l-4.95-3.3a1.07 1.07 0 0 1 1.19-1.78L42.87 42a4.33 4.33 0 0 1 1.93 3.6V48a1.07 1.07 0 0 1-1.07 1.07zm0 0"/></svg>