<svg id="Layer_1" data-name="Layer 1" xmlns="http://www.w3.org/2000/svg" viewBox="0 0 64 64"><defs><style>.cls-1{fill:none}.cls-2{clip-path:url(#clip-path)}.cls-3{fill:#efce4a}.cls-4{fill:#ebba16}.cls-5{fill:#f4efdc}.cls-6{fill:#cec9ae}.cls-7{fill:#d1bf86}</style><clipPath id="clip-path"><path class="cls-1" d="M0 3.03h59.74V64H0z"/></clipPath></defs><title>icons</title><g class="cls-2"><path class="cls-3" d="M47.31 62.77H1.6a1.6 1.6 0 0 1-1.55-2l10.39-28.48A1.6 1.6 0 0 1 12 31.12h45.69c1.05 0 1.54 1 1.54 2L48.85 61.6a1.59 1.59 0 0 1-1.54 1.18zm0 0"/></g><path class="cls-4" d="M51.34 21.92H49v9.2h4.09v-7.43a1.77 1.77 0 0 0-1.77-1.77zM4.08 14.78H1.77A1.77 1.77 0 0 0 0 16.55v43.63h.21l3.87-10.56zm0 0"/><path class="cls-5" d="M10.44 32.29A1.6 1.6 0 0 1 12 31.12h37V3.54H10.21v29.37zm0 0"/><path class="cls-6" d="M17.36 19.88h24.51a1 1 0 1 0 0-2H17.36a1 1 0 1 0 0 2zm0-7.15h10.22a1 1 0 0 0 0-2H17.36a1 1 0 1 0 0 2zM41.87 25H17.36a1 1 0 1 0 0 2h24.51a1 1 0 1 0 0-2zm-31.66 7.91V5.59H7.15v35.72zm0 0"/><path class="cls-7" d="M7.15 41.31V7.62H4.08v42.09zm0 0"/></svg>