<svg id="Layer_1" data-name="Layer 1" xmlns="http://www.w3.org/2000/svg" viewBox="0 0 64 64"><defs><style>.cls-1{fill:#4b6daa}.cls-2{fill:#d8a852}.cls-3{fill:#fbce9d}.cls-4{fill:#f7b563}</style></defs><title>icons</title><path class="cls-1" d="M46.29 0h16v41.14h-16z"/><path class="cls-2" d="M58.86 10.28a4.57 4.57 0 1 1-4.57-4.57 4.57 4.57 0 0 1 4.57 4.57zm0 0"/><path class="cls-3" d="M2.86 34.28a4.57 4.57 0 0 0 4.57 4.57h17.83l-1.13 5.28A37.63 37.63 0 0 0 24 56.52C24.52 60 27.61 64 30.85 64h.27c2.75 0 3.74-3 3.74-6.86 0-18.57 9.14-18.29 9.14-18.29h2.28V2.29H13.14a4.57 4.57 0 1 0 0 9.14H9.72a4.57 4.57 0 1 0 0 9.14H6.29a4.57 4.57 0 0 0-4.57 4.58c0 2.85 1.84 3.93 4.57 4.34a41.22 41.22 0 0 0 4.57.23H7.43a4.57 4.57 0 0 0-4.57 4.57zm0 0"/><path class="cls-4" d="M22.28 11.43a1.14 1.14 0 0 0-1.14-1.14h-11a4.54 4.54 0 0 0 3 1.14H9.72a4.53 4.53 0 0 0-3 1.14h14.43a1.14 1.14 0 0 0 1.14-1.14zm-3.42 8H6.72a4.52 4.52 0 0 0 3 1.14H6.29a4.53 4.53 0 0 0-3 1.14h15.57a1.14 1.14 0 1 0 0-2.28zm0 9.14H3.48a7.43 7.43 0 0 0 2.81.91 41.22 41.22 0 0 0 4.57.23H7.43a4.54 4.54 0 0 0-3 1.14h14.43a1.14 1.14 0 0 0 0-2.29zm0 0"/></svg>