<svg id="Layer_1" data-name="Layer 1" xmlns="http://www.w3.org/2000/svg" viewBox="0 0 64 64"><defs><style>.cls-1,.cls-4,.cls-6{fill:none}.cls-2{fill:#7383bf}.cls-3{clip-path:url(#clip-path)}.cls-4,.cls-6{stroke:#556080;stroke-miterlimit:10;stroke-width:1.6px}.cls-5{fill:#fff}.cls-6{stroke-linecap:round}</style><clipPath id="clip-path"><path class="cls-1" d="M2.27 0h59.45v64H2.27z"/></clipPath></defs><title>icons</title><path class="cls-2" d="M50.09 25.33A23.32 23.32 0 1 1 26.77 2a23.32 23.32 0 0 1 23.32 23.33zm0 0"/><g class="cls-3"><path class="cls-4" d="M50.09 25.33A23.32 23.32 0 1 1 26.77 2a23.32 23.32 0 0 1 23.32 23.33zm0 0"/></g><path class="cls-5" d="M34.93 26.49H18.61a1.17 1.17 0 1 1 0-2.33h16.32a1.17 1.17 0 1 1 0 2.33zm0 0"/><g class="cls-3"><path class="cls-6" d="M42.45 42.58l18.13 18.85"/></g></svg>