<svg id="Layer_1" data-name="Layer 1" xmlns="http://www.w3.org/2000/svg" viewBox="0 0 64 64"><defs><style>.cls-1{fill:#3083c9}.cls-2{fill:#a1c8ec}</style></defs><title>icons</title><path class="cls-1" d="M62.93 30.93A30.93 30.93 0 1 1 32 0a30.93 30.93 0 0 1 30.93 30.93zm0 0"/><path class="cls-2" d="M32 64A32 32 0 0 1 9.33 9.41a2.13 2.13 0 1 1 3 3 27.74 27.74 0 1 0 21.81-8.06v11.47a2.14 2.14 0 0 1-4.27 0V2.14A2.14 2.14 0 0 1 32 0a32 32 0 0 1 0 64zm0 0"/><path class="cls-2" d="M21.33 21.46l13.81 10a2.73 2.73 0 1 1-3.82 3.82zm0 0"/></svg>