<svg id="Layer_1" data-name="Layer 1" xmlns="http://www.w3.org/2000/svg" viewBox="0 0 64 64"><defs><style>.cls-1,.cls-3{fill:none}.cls-2{clip-path:url(#clip-path)}.cls-3{stroke:#556080;stroke-linecap:round;stroke-miterlimit:10;stroke-width:1.6px}.cls-4{fill:#a97c50}.cls-5{fill:#997046}.cls-6{fill:#d1a074}.cls-7{fill:#c7cac7}</style><clipPath id="clip-path"><path class="cls-1" d="M0 4.77h64v54.47H0z"/></clipPath></defs><title>icons</title><g class="cls-2"><path class="cls-3" d="M20.7 18.92V8.26a2.41 2.41 0 0 1 2.4-2.4h17a2.4 2.4 0 0 1 2.4 2.4v10.66"/></g><path class="cls-4" d="M61 59.23H2.19A2.19 2.19 0 0 1 0 57V17.85a2.19 2.19 0 0 1 2.19-2.19H61a2.19 2.19 0 0 1 2.19 2.19V57A2.19 2.19 0 0 1 61 59.23zm0 0"/><path class="cls-5" d="M8.71 15.66H2.19A2.19 2.19 0 0 0 0 17.85V57a2.19 2.19 0 0 0 2.19 2.19h6.52zm52.29 0h-6.53v43.57H61A2.19 2.19 0 0 0 63.18 57V17.85A2.19 2.19 0 0 0 61 15.66zm0 0"/><path class="cls-6" d="M7.63 15.66h2.18v43.57H7.63zm45.75 0h2.18v43.57h-2.18z"/><path class="cls-7" d="M5.45 12.39h8.71v3.27H5.45zm43.57 0h8.71v3.27h-8.71z"/></svg>