<svg id="Layer_1" data-name="Layer 1" xmlns="http://www.w3.org/2000/svg" viewBox="0 0 64 64"><defs><style>.cls-1,.cls-5,.cls-6{fill:none}.cls-2{fill:#61b872}.cls-3{fill:#fff}.cls-4{clip-path:url(#clip-path)}.cls-5,.cls-6{stroke:#e7eced;stroke-miterlimit:10;stroke-width:1.6px}.cls-6{stroke:#afb6bb;stroke-linecap:round}</style><clipPath id="clip-path"><path class="cls-1" d="M0 14.08h64v35.84H0z"/></clipPath></defs><title>icons</title><path class="cls-2" d="M3.19 15.57h55.49a3.19 3.19 0 0 1 3.19 3.19v25.62a3.19 3.19 0 0 1-3.19 3.19H3.19A3.19 3.19 0 0 1 0 44.38V18.77a3.19 3.19 0 0 1 3.19-3.19zm0 0"/><path class="cls-3" d="M33.06 15.57h25.62a3.19 3.19 0 0 1 3.19 3.19v25.62a3.19 3.19 0 0 1-3.19 3.19H33.06a3.2 3.2 0 0 1-3.19-3.19V18.77a3.19 3.19 0 0 1 3.19-3.19zm0 0"/><g class="cls-4"><path class="cls-5" d="M33.06 15.57h25.62a3.19 3.19 0 0 1 3.19 3.19v25.62a3.19 3.19 0 0 1-3.19 3.19H33.06a3.2 3.2 0 0 1-3.19-3.19V18.77a3.19 3.19 0 0 1 3.19-3.19zm0 0"/></g><path class="cls-6" d="M49.07 34.77v-6.4m-3.2 6.4v-6.4m-3.2 6.4v-6.4"/></svg>