<svg id="Layer_1" data-name="Layer 1" xmlns="http://www.w3.org/2000/svg" viewBox="0 0 64 64"><defs><style>.cls-1,.cls-4{fill:none}.cls-2{fill:#7fabda}.cls-3{clip-path:url(#clip-path)}.cls-4{stroke:#88c057;stroke-linecap:round;stroke-miterlimit:10;stroke-width:1.6px}.cls-5{fill:#e7eced}.cls-6{fill:#fff}.cls-7{fill:#424a60}</style><clipPath id="clip-path"><path class="cls-1" d="M.64 0h62.71v64H.64z"/></clipPath></defs><title>icons</title><path class="cls-2" d="M59.17 29.48H35v29.58a3.65 3.65 0 0 1-3.65 3.65h27.82a3.65 3.65 0 0 0 3.65-3.65V33.13a3.65 3.65 0 0 0-3.65-3.65zm0 0"/><g class="cls-3"><path class="cls-4" d="M55.32 15.54A12.86 12.86 0 0 0 42.45 2.68m6.43 11.79l6.43 6.43m0 0l6.43-6.43m-6.42 6.43v-5.36"/></g><path class="cls-5" d="M31.3 62.71h-27a3.65 3.65 0 0 1-3.66-3.65V4.18A3.65 3.65 0 0 1 4.29.54h27A3.65 3.65 0 0 1 35 4.18v54.88a3.65 3.65 0 0 1-3.65 3.65zm0 0"/><path class="cls-6" d="M21 57.35a3.22 3.22 0 1 1-3.21-3.21A3.22 3.22 0 0 1 21 57.35zm0 0"/><path class="cls-7" d="M17.8 4.82h-4.29a1.07 1.07 0 1 1 0-2.14h4.29a1.07 1.07 0 1 1 0 2.14zm4.28 0H21a1.07 1.07 0 1 1 0-2.14h1.07a1.07 1.07 0 1 1 0 2.14zM.64 6.97h34.31v45.02H.64z"/><path class="cls-5" d="M59.17 29.48h-2.78v33.23h2.78a3.65 3.65 0 0 0 3.65-3.65V33.13a3.65 3.65 0 0 0-3.65-3.65zm0 0"/></svg>