<svg id="Layer_1" data-name="Layer 1" xmlns="http://www.w3.org/2000/svg" viewBox="0 0 64 64"><defs><style>.cls-1{fill:#e7eced}.cls-2{fill:#afb6bb}.cls-3{fill:#fff}.cls-4{fill:#424a60}.cls-5{fill:#efce4a}.cls-6{fill:#1a9172}.cls-7{fill:#25ae88}</style></defs><title>icons</title><path class="cls-1" d="M60.46 55.17H3.55A3.55 3.55 0 0 1 0 51.62V12.38a3.55 3.55 0 0 1 3.55-3.55h56.9A3.55 3.55 0 0 1 64 12.38v39.24a3.55 3.55 0 0 1-3.54 3.55z"/><path class="cls-2" d="M32 24.27h11a1.1 1.1 0 1 0 0-2.2H32a1.1 1.1 0 1 0 0 2.2zm15.45 0h1.1a1.1 1.1 0 1 0 0-2.2h-1.1a1.1 1.1 0 0 0 0 2.2zM33.1 40.83H32A1.1 1.1 0 0 0 32 43h1.1a1.1 1.1 0 0 0 0-2.21zm6.63 0h-2.21a1.1 1.1 0 0 0 0 2.21h2.21a1.1 1.1 0 0 0 0-2.21zm5.51 0h-1.1a1.1 1.1 0 0 0 0 2.21h1.1a1.1 1.1 0 1 0 0-2.21zm6.63 0h-2.21a1.1 1.1 0 1 0 0 2.21h2.21a1.1 1.1 0 0 0 0-2.21zm3.62.32a1.12 1.12 0 0 0 0 1.56 1.17 1.17 0 0 0 .79.32 1.11 1.11 0 1 0-.79-1.89zM32 30.9h24.28a1.1 1.1 0 1 0 0-2.21H32a1.1 1.1 0 1 0 0 2.21zm24.28 4.41H32a1.1 1.1 0 0 0 0 2.21h24.28a1.1 1.1 0 1 0 0-2.21z"/><path class="cls-3" d="M5.55 21.42h20.9V43.5H5.55z"/><path class="cls-4" d="M6.8 22.75h18.4v16.62H6.8z"/><path class="cls-5" d="M13.12 28.86a1.81 1.81 0 1 1-1.81-1.75 1.78 1.78 0 0 1 1.81 1.75z"/><path class="cls-6" d="M25.2 35.96l-.4-.42-4.76-4.22-4.17 4.41 2.18 2.1 1.59 1.54h5.56v-3.41z"/><path class="cls-7" d="M18.05 37.83l-4.35-4.2-6.76 5.74h12.7l-1.59-1.54z"/></svg>