<svg id="Layer_1" data-name="Layer 1" xmlns="http://www.w3.org/2000/svg" viewBox="0 0 64 64"><defs><style>.cls-1{fill:none}.cls-2{fill:#c7cac7}.cls-3{clip-path:url(#clip-path)}</style><clipPath id="clip-path"><path class="cls-1" d="M2.67 0h58.67v64H2.67z"/></clipPath></defs><title>icons</title><path class="cls-2" d="M31.27 28.28a1 1 0 0 0-.72 1.29c0 .1 2.82 10 2.05 32.09a1 1 0 0 0 1 1.08 1 1 0 0 0 1-1c.78-22.39-2-32.33-2.13-32.75a1 1 0 0 0-1.3-.71zm0 0"/><g class="cls-3"><path class="cls-2" d="M57.57 18.28A28.23 28.23 0 0 0 20.69 3.23a34.07 34.07 0 0 0-5.39 2.82 1 1 0 0 0 1.14 1.76 31.56 31.56 0 0 1 5-2.65 26.14 26.14 0 0 1 34.2 13.94c1.7 4 2.62 11.45 3 15.51a1 1 0 0 0 1 .94h.11a1 1 0 0 0 .93-1.14c-.5-5.11-1.46-12.05-3.18-16.13zM12.21 11.2a1 1 0 0 0-1.47-1.49c-5.63 5.54-11.23 15.84-6 33.46a1 1 0 0 0 1 .75 1 1 0 0 0 .3 0 1 1 0 0 0 .7-1.3c-3.92-13.15-2-24 5.44-31.37zm0 0"/></g><path class="cls-2" d="M32.37 7.34A21.61 21.61 0 0 0 23.11 9a22 22 0 0 0-12.68 26.25 26.24 26.24 0 0 1 .78 3.33c.38 2.56.4 7.27.4 14.75a1 1 0 0 0 2.09 0c0-7.8 0-12.35-.41-15.06a28 28 0 0 0-.84-3.6A19.87 19.87 0 0 1 32.29 9.43c7.44.27 15.87 6.82 18.41 14.31 2.2 6.49 2.22 17.53 1.95 27.47a1 1 0 0 0 1 1.08 1.07 1.07 0 0 0 1.07-1c.28-10.15.28-21.43-2.04-28.22-2.84-8.38-12-15.43-20.31-15.73zm0 0"/><path class="cls-2" d="M23.8 18.13a1 1 0 0 0-1.2-1.71c-5.39 3.78-7.73 11-5.82 18.08a81.59 81.59 0 0 1 2.15 19.87 1 1 0 0 0 2.09 0C21 42 18.88 34.27 18.79 34c-1.67-6.18.34-12.54 5-15.82zm7.76-4.53a15.76 15.76 0 0 0-3.36.4 1 1 0 0 0 .45 2 13.59 13.59 0 0 1 15.43 8c2.54 6 2.71 15.64 2.12 32.45a1 1 0 0 0 1 1.08 1 1 0 0 0 1-1c.7-17.53.52-26.96-2.2-33.36a15.65 15.65 0 0 0-14.44-9.57zm10.37 37.65a1 1 0 0 0-1-1.06 1.05 1.05 0 0 0-1 1c0 .79 0 1.94.05 3.18 0 1.8.09 3.84 0 5.16a1 1 0 0 0 1 1.08 1 1 0 0 0 1-1c.05-1.37 0-3.45 0-5.28 0-1.22-.05-2.34 0-3.11zm0 0"/><path class="cls-2" d="M31.56 20.92a8.3 8.3 0 0 0-3.22.65 8.5 8.5 0 0 0-4.61 10.68c.79 2.39 1.45 14.92 1.45 27.36a1 1 0 0 0 2.09 0c0-11.2-.6-25.1-1.56-28a6.43 6.43 0 0 1 3.42-8.1 6.28 6.28 0 0 1 8.2 3.35c2 4.62 2.53 13 2.68 19.19a1 1 0 0 0 1 1 1 1 0 0 0 1-1.07c-.15-6.39-.76-15-2.84-20a8.35 8.35 0 0 0-7.71-5.11zm0 0"/></svg>