<svg id="Layer_1" data-name="Layer 1" xmlns="http://www.w3.org/2000/svg" viewBox="0 0 64 64"><defs><style>.cls-1{fill:#395976}.cls-2{fill:#f1f2f2}</style></defs><title>icons</title><path class="cls-1" d="M63.48 31.73A31.56 31.56 0 1 1 31.91.17a31.56 31.56 0 0 1 31.57 31.56zm0 0"/><path class="cls-2" d="M33.09 21.57v-8.48h-5.48a2.94 2.94 0 0 0-.18 1.07 1.59 1.59 0 0 0-.12.5 8.2 8.2 0 0 1-5 6.53 4.6 4.6 0 0 1-2.38.38v6.83h4C24 38 24 43 24 43.23v.57c.5 4.2 2.7 6.71 6.59 7.65a18.7 18.7 0 0 0 5 .63A23.41 23.41 0 0 0 42.06 51v-8c-1.25.38-2.38.69-3.39 1a4.73 4.73 0 0 1-4.9-1.06 2.6 2.6 0 0 1-.38-.7 17.46 17.46 0 0 1-.3-3.07V28.4h8.72v-6.83zm0 0"/></svg>