<svg id="Layer_1" data-name="Layer 1" xmlns="http://www.w3.org/2000/svg" viewBox="0 0 64 64"><defs><style>.cls-1{fill:#edeada}.cls-2{fill:#cec9ae}</style></defs><title>icons</title><path class="cls-1" d="M56.83 15.45L41.38 0H7.17v64h49.66zm0 0"/><path class="cls-2" d="M18.21 25.38h27.58a1.1 1.1 0 1 0 0-2.2H18.21a1.1 1.1 0 1 0 0 2.2zm0-8.83h11a1.1 1.1 0 1 0 0-2.21h-11a1.1 1.1 0 0 0 0 2.21zM45.79 32H18.21a1.1 1.1 0 1 0 0 2.21h27.58a1.1 1.1 0 1 0 0-2.21zm0 8.83H18.21a1.1 1.1 0 1 0 0 2.2h27.58a1.1 1.1 0 1 0 0-2.2zm0 8.83H18.21a1.1 1.1 0 0 0 0 2.21h27.58a1.1 1.1 0 1 0 0-2.21zM41.38 0v15.45h15.45zm0 0"/></svg>