<svg id="Layer_1" data-name="Layer 1" xmlns="http://www.w3.org/2000/svg" viewBox="0 0 64 64"><defs><style>.cls-1{fill:#f7b563}</style></defs><title>icons</title><path class="cls-1" d="M34.54 11.22V28.6a1.68 1.68 0 1 1-3.36 0V3.36a3.36 3.36 0 0 0-6.73 0V28.6a1.68 1.68 0 1 1-3.37 0V8.41a2.8 2.8 0 1 0-5.61 0v22.43a1.68 1.68 0 1 1-3.36 0v-14A2.8 2.8 0 0 0 9.31 14a2.8 2.8 0 0 0-2.8 2.8v30.45C7.43 60.8 14.86 64 25.34 64c7.47 0 13.92-3.82 17-9.36 1.3-2.1 9.19-14.39 9.87-15.67a14.94 14.94 0 0 1 3.4-4.49 7.56 7.56 0 0 0 1.77-2.36c.12-.22.48-3-1.56-3a10.06 10.06 0 0 0-5.22 1.78 18.31 18.31 0 0 0-5.6 6.2 3.42 3.42 0 0 1-2.84 1.78c-1.12 0-.83-.53-.9-2.85V11.22a3.37 3.37 0 0 0-6.73 0zm0 0"/></svg>