<svg id="Layer_1" data-name="Layer 1" xmlns="http://www.w3.org/2000/svg" viewBox="0 0 64 64"><defs><style>.cls-1{fill:#edeada}.cls-2{fill:#cec9ae}.cls-3{fill:#7383bf}.cls-4{fill:#ebba16}.cls-5{fill:#d75a4a}</style></defs><title>icons</title><path class="cls-1" d="M56.83 15.45L41.38 0H7.17v64h49.66zm0 0"/><path class="cls-2" d="M41.38 0v15.45h15.45zM17.1 17.66H27a1.1 1.1 0 1 0 0-2.21h-9.9a1.1 1.1 0 1 0 0 2.21zm0 8.82h5.52a1.1 1.1 0 1 0 0-2.2H17.1a1.1 1.1 0 1 0 0 2.2zm24.28-2.2h-7.73a1.1 1.1 0 1 0 0 2.2h7.73a1.1 1.1 0 1 0 0-2.2zm-14.02.33a1.06 1.06 0 0 0-.32.77 1.11 1.11 0 0 0 .32.79 1.14 1.14 0 0 0 .78.32 1.09 1.09 0 0 0 .79-.33 1.14 1.14 0 0 0 .32-.78 1.18 1.18 0 0 0-.32-.78 1.14 1.14 0 0 0-1.57 0zm20.32-.01a1.11 1.11 0 0 0-1.57 1.57 1.17 1.17 0 0 0 .79.32 1.1 1.1 0 0 0 .78-1.89zm-17.33 8.5h-7.73a1.1 1.1 0 0 0 0 2.21h7.73a1.1 1.1 0 0 0 0-2.21zm-14.03.32a1.1 1.1 0 0 0-.32.79 1.11 1.11 0 0 0 1.1 1.1 1.17 1.17 0 0 0 .79-.32 1.13 1.13 0 0 0 0-1.57 1.17 1.17 0 0 0-1.57 0zm0 0"/><path class="cls-3" d="M20.57 43.22c-2.41 1.26-3.23 3.66-3.52 6.16l-1.37-1.15c-1.08-.9-2.66.65-1.56 1.56l3.1 2.6a1.11 1.11 0 0 0 1.88-.78c.08-2.39.2-5.23 2.59-6.48 1.26-.66.15-2.56-1.11-1.91zm10.31 5.61a2.61 2.61 0 0 0-3-1.21c-1.5.43-3.29 2.25-4.34.12-.63-1.28-2.53-.16-1.91 1.11a3.75 3.75 0 0 0 4.81 1.89c.45-.17 2.12-1.47 2.5-.79.7 1.24 2.6.13 1.91-1.12zm0 0"/><path class="cls-4" d="M44.19 32.1a1.81 1.81 0 0 0 2.48 1 1.81 1.81 0 0 1 2.41 2.41 1.81 1.81 0 0 0 1 2.48 1.81 1.81 0 0 1 0 3.41 1.81 1.81 0 0 0-1 2.48 1.81 1.81 0 0 1-2.41 2.41 1.82 1.82 0 0 0-2.48 1 1.81 1.81 0 0 1-3.41 0 1.81 1.81 0 0 0-2.48-1 1.81 1.81 0 0 1-2.41-2.41 1.81 1.81 0 0 0-1-2.48 1.81 1.81 0 0 1 0-3.41 1.8 1.8 0 0 0 1-2.48 1.81 1.81 0 0 1 2.41-2.41 1.81 1.81 0 0 0 2.48-1 1.81 1.81 0 0 1 3.41 0zm0 0"/><path class="cls-5" d="M46.67 46.32a1.82 1.82 0 0 0-2.48 1 1.81 1.81 0 0 1-3.41 0 1.81 1.81 0 0 0-2.48-1 2 2 0 0 1-.23.07v12.09l4.42-4.41 4.41 4.41V46.39a2 2 0 0 1-.23-.07zm0 0"/></svg>