<svg id="Layer_1" data-name="Layer 1" xmlns="http://www.w3.org/2000/svg" viewBox="0 0 64 64"><defs><style>.cls-1{fill:#424a60}.cls-2{fill:#303644}.cls-3{fill:#edeada}.cls-4{fill:#7383bf}.cls-5{fill:#cec9ae}</style></defs><title>icons</title><path class="cls-1" d="M41.38 2.21H37v3.31H27V2.21H6V64h51.93V2.21zm0 0"/><path class="cls-2" d="M27.03 0h9.93v5.52h-9.93z"/><path class="cls-3" d="M44.69 5.52v3.31H19.31V5.52H9.37v55.17h45.25V5.52zm0 0"/><path class="cls-4" d="M37 2.21v3.31H27V2.21h-7.69v6.62h25.38V2.21zm0 0"/><path class="cls-5" d="M30.35 17.66H16a1.1 1.1 0 1 1 0-2.21h14.35a1.1 1.1 0 0 1 0 2.21zm0 34.21H16a1.1 1.1 0 1 1 0-2.21h14.35a1.1 1.1 0 0 1 0 2.21zM48 24.28H16a1.1 1.1 0 1 1 0-2.21h32a1.1 1.1 0 1 1 0 2.21zm0 13.24H16a1.1 1.1 0 1 1 0-2.2h32a1.1 1.1 0 1 1 0 2.2zm0 7.72H16A1.1 1.1 0 1 1 16 43h32a1.1 1.1 0 1 1 0 2.21zM31.44 30.9H16a1.1 1.1 0 1 1 0-2.2h15.44a1.1 1.1 0 1 1 0 2.2zm16.56 0h-7.72a1.1 1.1 0 1 1 0-2.2H48a1.1 1.1 0 1 1 0 2.2zm-12.14 0a1.09 1.09 0 0 1-.79-.32 1.15 1.15 0 0 1-.32-.78 1.09 1.09 0 0 1 .32-.79 1.14 1.14 0 0 1 1.57 0 1.09 1.09 0 0 1 .32.79 1.08 1.08 0 0 1-1.1 1.1zm0 0"/></svg>