<svg id="Layer_1" data-name="Layer 1" xmlns="http://www.w3.org/2000/svg" viewBox="0 0 64 64"><defs><style>.cls-1{fill:none}.cls-2{fill:#ed8a19}.cls-3{clip-path:url(#clip-path)}.cls-4{fill:#26b99a}.cls-5{fill:#3083c9}</style><clipPath id="clip-path"><path class="cls-1" d="M1.41 0h61.18v64H1.41z"/></clipPath></defs><title>icons</title><path class="cls-2" d="M48 62.74a1 1 0 1 1 0-2.09h2a1.07 1.07 0 0 1 1.08 1 1 1 0 0 1-1 1v-1 1zm-4.18 0h-2.07a1 1 0 1 1 0-2.09h2.09a1 1 0 1 1 0 2.09zm-6.28 0h-2.07a1 1 0 0 1 0-2.09h2.09a1 1 0 1 1 0 2.09zm-6.28 0H29.2a1 1 0 1 1 0-2.09h2.09a1 1 0 1 1 0 2.09zm-6.27 0h-2.07a1 1 0 1 1 0-2.09H25a1 1 0 1 1 0 2.09zm-6.27 0h-2.07a1 1 0 1 1 0-2.09h2.09a1 1 0 0 1 0 2.09zm35-1.8a1.06 1.06 0 0 1-.65-.22 1 1 0 0 1-.17-1.47 3.73 3.73 0 0 0 .7-1.45 1 1 0 1 1 2 .46 5.73 5.73 0 0 1-1.09 2.29 1 1 0 0 1-.82.4zm0-5.82a1 1 0 0 1-.82-.4 3.73 3.73 0 0 0-1.26-1 1 1 0 1 1 .93-1.87 5.78 5.78 0 0 1 2 1.6 1 1 0 0 1-.18 1.47 1 1 0 0 1-.64.22zM48 53.33h-2.07a1 1 0 1 1 0-2.09H48a1 1 0 1 1 0 2.09zm-6.28 0h-2.06a1 1 0 1 1 0-2.09h2.09a1 1 0 1 1 0 2.09zm-6.21-.42a1 1 0 0 1-.43-.1 5.83 5.83 0 0 1-2-1.53 1 1 0 0 1 1.6-1.35 3.7 3.7 0 0 0 1.29 1 1 1 0 0 1 .52 1.38 1.06 1.06 0 0 1-1 .61zm-2.67-5.17h-.19a1 1 0 0 1-.83-1.23 5.71 5.71 0 0 1 1-2.32 1 1 0 1 1 1.68 1.24 3.71 3.71 0 0 0-.65 1.48 1 1 0 0 1-1 .85zm4.4-3.81a1 1 0 0 1 0-2.09h2.13a1 1 0 0 1 0 2.09h-2.11zm19.05 0h-.22a1 1 0 0 1 0-2.09h.22a3.61 3.61 0 0 0 1.41-.28 1 1 0 1 1 .81 1.93 5.71 5.71 0 0 1-2.22.45zm-4.41 0h-2.07a1 1 0 0 1 0-2.09h2.09a1 1 0 1 1 0 2.09zm-6.28 0h-2.06a1 1 0 0 1 0-2.09h2.09a1 1 0 1 1 0 2.09zm15.2-3.38a.94.94 0 0 1-.29 0 1 1 0 0 1-.71-1.3 3.74 3.74 0 0 0 .15-1 3.53 3.53 0 0 0 0-.58 1 1 0 0 1 2.05-.41 5.55 5.55 0 0 1 .07.91 5.79 5.79 0 0 1-.23 1.61 1 1 0 0 1-1 .75zm-2.16-5.4a1 1 0 0 1-.53-.14 3.55 3.55 0 0 0-1.54-.48 1 1 0 1 1 .16-2.08 5.71 5.71 0 0 1 2.42.75 1 1 0 0 1-.53 2zm-6.16-.63h-2.07a1 1 0 0 1 0-2.09h2.09a1 1 0 1 1 0 2.09zm-6.28 0h-2.06a1 1 0 1 1 0-2.09h2.09a1 1 0 1 1 0 2.09zm-6.28 0h-2.05a1 1 0 1 1 0-2.09H40a1 1 0 1 1 0 2.09zm-6.27 0h-.35a6 6 0 0 1-2.05-.38 1 1 0 0 1 .75-2 3.7 3.7 0 0 0 1.31.24h.37a1 1 0 0 1 0 2.09zm-4.85-3.24a1 1 0 0 1-1-.72 5.78 5.78 0 0 1-.2-2.56 1 1 0 0 1 2.08.26 3.48 3.48 0 0 0 0 .47 3.73 3.73 0 0 0 .18 1.14 1 1 0 0 1-.66 1.32 1.07 1.07 0 0 1-.33.05zm2-5.47a1 1 0 0 1-.89-.5 1 1 0 0 1 .33-1.44 5.63 5.63 0 0 1 2.4-.83 1 1 0 0 1 .23 2.08 3.56 3.56 0 0 0-1.52.53 1 1 0 0 1-.55.16zm14.51-.71h-2.07a1 1 0 1 1 0-2.09h2.09a1 1 0 0 1 0 2.09zm-6.28 0H37a1 1 0 1 1 0-2.1h2.09a1 1 0 1 1 0 2.09zm0 0"/><g class="cls-3"><path class="cls-4" d="M56.8 3.84a7.79 7.79 0 0 0-12 0 10.4 10.4 0 0 0 0 13.47l6 6.74 6-6.74a10.4 10.4 0 0 0 0-13.47zm-5.72 10.8a4.71 4.71 0 1 1 4.71-4.7 4.71 4.71 0 0 1-4.71 4.7zm0 0"/><path class="cls-5" d="M21 31a10.59 10.59 0 0 0-16.22 0 14.21 14.21 0 0 0 0 18.37l8.13 9.19L21 49.37A14.2 14.2 0 0 0 21 31zm-8.08 12.92a5.23 5.23 0 1 1 5.23-5.23 5.23 5.23 0 0 1-5.23 5.23zm0 0"/></g></svg>