<svg id="Layer_1" data-name="Layer 1" xmlns="http://www.w3.org/2000/svg" viewBox="0 0 64 64"><defs><style>.cls-1{fill:#b1b7bc}.cls-2{fill:#e7eced}.cls-3{fill:#424a60}.cls-4{fill:#57abc1}.cls-5{fill:#fff}.cls-6{fill:#c7cac7}.cls-7{fill:#d7d7e2}</style></defs><title>icons</title><path class="cls-1" d="M64 18.66H0V3.11A2.27 2.27 0 0 1 2.26.83h59.48A2.27 2.27 0 0 1 64 3.11zm0 0"/><path class="cls-2" d="M3.31 18.66h57.38v44.51H3.31z"/><path class="cls-3" d="M41.93 14.2H22.07a4.45 4.45 0 0 1 0-8.91h19.86a4.45 4.45 0 0 1 0 8.91zm0 0"/><path class="cls-4" d="M3.31 57.6h57.38v5.57H3.31z"/><path class="cls-5" d="M16.55 27.55h30.9v15.58h-30.9z"/><path class="cls-6" d="M21 34.23h6.62a1.11 1.11 0 0 0 0-2.23H21a1.11 1.11 0 0 0 0 2.23zm11 0a1.19 1.19 0 0 0 .79-.32 1.22 1.22 0 0 0 .32-.79 1.18 1.18 0 0 0-.32-.79 1.15 1.15 0 0 0-1.57 0 1.13 1.13 0 0 0 0 1.58 1.14 1.14 0 0 0 .78.32zm11 2.22H25.38a1.11 1.11 0 0 0 0 2.22H43a1.11 1.11 0 0 0 0-2.22zm-22.82.32a1.13 1.13 0 0 0 0 1.58 1.12 1.12 0 0 0 .78.32 1.15 1.15 0 0 0 .79-.32 1.14 1.14 0 0 0 0-1.58 1.15 1.15 0 0 0-1.57 0zm0 0"/><path class="cls-7" d="M3.31 18.64h57.38v5.57H3.31z"/></svg>