<svg id="Layer_1" data-name="Layer 1" xmlns="http://www.w3.org/2000/svg" viewBox="0 0 64 64"><defs><style>.cls-1{fill:#ffdb82}.cls-2{fill:#f6f7fc}.cls-3{fill:#e1e6f3}.cls-4{fill:#d3d8e9}.cls-5{fill:#4c4756}.cls-6{fill:#cedb71}.cls-7{fill:#eb5c60}</style></defs><title>icons</title><path class="cls-1" d="M40.28 64H23.72a1.66 1.66 0 0 1-1.66-1.66V1.66A1.66 1.66 0 0 1 23.72 0h16.56a1.66 1.66 0 0 1 1.66 1.66v60.68A1.66 1.66 0 0 1 40.28 64z"/><path class="cls-2" d="M37.52 38.62h-11a1.1 1.1 0 0 1-1.1-1.1V9.93a1.1 1.1 0 0 1 1.1-1.1h11a1.1 1.1 0 0 1 1.1 1.1v27.59a1.1 1.1 0 0 1-1.1 1.1z"/><path class="cls-3" d="M35.31 18.76h-6.62a1.1 1.1 0 1 1 0-2.21h6.62a1.1 1.1 0 0 1 0 2.21zm0 4.41h-6.62a1.1 1.1 0 1 1 0-2.21h6.62a1.1 1.1 0 0 1 0 2.21zm0 4.42h-6.62a1.1 1.1 0 0 1 0-2.21h6.62a1.1 1.1 0 0 1 0 2.21zm0 8.82h-6.62a1.1 1.1 0 1 1 0-2.21h6.62a1.1 1.1 0 0 1 0 2.21z"/><path class="cls-4" d="M25.38 29.79h13.24V32H25.38v-2.21zm13.24-16.55H25.38V8.83a1.1 1.1 0 0 1 1.1-1.1h11a1.1 1.1 0 0 1 1.1 1.1v4.41z"/><path class="cls-5" d="M32 45.79a2.76 2.76 0 1 1-2.76 2.76A2.76 2.76 0 0 1 32 45.79z"/><path class="cls-2" d="M32 45.79a2.76 2.76 0 1 0 2.76 2.76A2.76 2.76 0 0 0 32 45.79zm0 7.72a5 5 0 1 1 5-5 5 5 0 0 1-5 5z"/><path class="cls-6" d="M60.14 64H43.59a1.66 1.66 0 0 1-1.66-1.66V1.66A1.66 1.66 0 0 1 43.59 0h16.55a1.66 1.66 0 0 1 1.66 1.66v60.68A1.66 1.66 0 0 1 60.14 64z"/><path class="cls-2" d="M57.38 38.62h-11a1.1 1.1 0 0 1-1.1-1.1V9.93a1.1 1.1 0 0 1 1.1-1.1h11a1.1 1.1 0 0 1 1.1 1.1v27.59a1.1 1.1 0 0 1-1.1 1.1z"/><path class="cls-3" d="M55.17 18.76h-6.62a1.1 1.1 0 1 1 0-2.21h6.62a1.1 1.1 0 1 1 0 2.21zm0 4.41h-6.62a1.1 1.1 0 1 1 0-2.21h6.62a1.1 1.1 0 1 1 0 2.21zm0 4.42h-6.62a1.1 1.1 0 0 1 0-2.21h6.62a1.1 1.1 0 0 1 0 2.21zm0 8.82h-6.62a1.1 1.1 0 1 1 0-2.21h6.62a1.1 1.1 0 1 1 0 2.21z"/><path class="cls-4" d="M45.24 29.79h13.24V32H45.24v-2.21zm13.24-16.55H45.24V8.83a1.1 1.1 0 0 1 1.1-1.1h11a1.1 1.1 0 0 1 1.1 1.1v4.41z"/><path class="cls-5" d="M51.86 45.79a2.76 2.76 0 1 1-2.76 2.76 2.76 2.76 0 0 1 2.76-2.76z"/><path class="cls-2" d="M51.86 45.79a2.76 2.76 0 1 0 2.76 2.76 2.76 2.76 0 0 0-2.76-2.76zm0 7.72a5 5 0 1 1 5-5 5 5 0 0 1-5 5z"/><path class="cls-7" d="M20.41 64H3.86a1.66 1.66 0 0 1-1.66-1.66V1.66A1.66 1.66 0 0 1 3.86 0h16.55a1.66 1.66 0 0 1 1.66 1.66v60.68A1.66 1.66 0 0 1 20.41 64z"/><path class="cls-2" d="M17.66 38.62h-11a1.1 1.1 0 0 1-1.1-1.1V9.93a1.1 1.1 0 0 1 1.1-1.1h11a1.1 1.1 0 0 1 1.1 1.1v27.59a1.1 1.1 0 0 1-1.1 1.1z"/><path class="cls-3" d="M15.45 18.76H8.83a1.1 1.1 0 1 1 0-2.21h6.62a1.1 1.1 0 1 1 0 2.21zm0 4.41H8.83a1.1 1.1 0 1 1 0-2.21h6.62a1.1 1.1 0 1 1 0 2.21zm0 4.42H8.83a1.1 1.1 0 0 1 0-2.21h6.62a1.1 1.1 0 1 1 0 2.21zm0 8.82H8.83a1.1 1.1 0 1 1 0-2.21h6.62a1.1 1.1 0 1 1 0 2.21z"/><path class="cls-4" d="M5.52 29.79h13.24V32H5.52v-2.21zm13.24-16.55H5.52V8.83a1.1 1.1 0 0 1 1.1-1.1h11a1.1 1.1 0 0 1 1.1 1.1v4.41z"/><path class="cls-5" d="M12.14 45.79a2.76 2.76 0 1 1-2.76 2.76 2.76 2.76 0 0 1 2.76-2.76z"/><path class="cls-2" d="M12.14 45.79a2.76 2.76 0 1 0 2.76 2.76 2.76 2.76 0 0 0-2.76-2.76zm0 7.72a5 5 0 1 1 5-5 5 5 0 0 1-5 5z"/></svg>