<svg id="Layer_1" data-name="Layer 1" xmlns="http://www.w3.org/2000/svg" viewBox="0 0 64 64"><defs><style>.cls-1{fill:#6a453b}</style></defs><title>icons</title><path class="cls-1" d="M41.3 16.92H22.53a5.44 5.44 0 0 0-5.43 5.43v18.76a5.44 5.44 0 0 0 5.43 5.43H41.3a5.44 5.44 0 0 0 5.43-5.43V22.35a5.44 5.44 0 0 0-5.43-5.43zm-9.39 24.57a9.75 9.75 0 1 1 9.75-9.75 9.77 9.77 0 0 1-9.75 9.75zM42 24a2.31 2.31 0 1 1 2.31-2.31A2.31 2.31 0 0 1 42 24zm0 0"/><path class="cls-1" d="M31.91 26.1a5.63 5.63 0 1 0 5.63 5.63 5.64 5.64 0 0 0-5.63-5.63zm0 0"/><path class="cls-1" d="M31.91.17a31.48 31.48 0 1 0 31.48 31.48A31.48 31.48 0 0 0 31.91.17zm18.94 40.94a9.56 9.56 0 0 1-9.55 9.55H22.53A9.56 9.56 0 0 1 13 41.11V22.35a9.57 9.57 0 0 1 9.55-9.55H41.3a9.56 9.56 0 0 1 9.55 9.55zm0 0"/></svg>