<svg id="Layer_1" data-name="Layer 1" xmlns="http://www.w3.org/2000/svg" viewBox="0 0 64 64"><defs><style>.cls-1{fill:#424a60}.cls-2{fill:#43b05c}.cls-3{fill:#7383bf}.cls-4{fill:#57d8ab}.cls-5{fill:#d75a4a}.cls-6{fill:#ebba16}.cls-7{fill:#4b6daa}</style></defs><title>icons</title><path class="cls-1" d="M32.61 33.81h2.41v21.74h-2.41zM54.7 6.39l1.71 1.7-18.12 18.12-1.71-1.7zM30.54 30.54l1.71 1.71L8.1 56.4l-1.71-1.7zM16.55 10l13.29 13.3-1.71 1.7-13.28-13.28zm20.53 20.54L55.2 48.66l-1.71 1.7-18.12-18.11zm0 0"/><path class="cls-2" d="M64 6a6 6 0 1 1-6-6 6 6 0 0 1 6 6zm0 0"/><path class="cls-3" d="M39.85 58a6 6 0 1 1-6-6 6 6 0 0 1 6 6zm0 0"/><path class="cls-4" d="M12.08 55.55a6 6 0 1 1-6-6 6 6 0 0 1 6 6zm0 0"/><path class="cls-5" d="M18.11 9.66A3.62 3.62 0 1 1 14.49 6a3.62 3.62 0 0 1 3.62 3.62zm0 0"/><path class="cls-6" d="M56.76 48.3a3.62 3.62 0 1 1-3.63-3.62 3.62 3.62 0 0 1 3.63 3.62zm0 0"/><path class="cls-7" d="M42.27 29a8.45 8.45 0 1 1-8.46-8.45A8.46 8.46 0 0 1 42.27 29zm0 0"/></svg>