<svg id="Layer_1" data-name="Layer 1" xmlns="http://www.w3.org/2000/svg" viewBox="0 0 64 64"><defs><style>.cls-1{fill:none}.cls-2{fill:#e3cda4}.cls-3{fill:#cbb895}.cls-4{clip-path:url(#clip-path)}.cls-5{fill:#bfa380}.cls-6{fill:#d75a4a}</style><clipPath id="clip-path"><path class="cls-1" d="M0 0h64v64H0z"/></clipPath></defs><title>icons</title><path class="cls-2" d="M50.74 1h-15L7.81 28.82 34.89 56l27.86-27.81V13zm-1.67 17a3.35 3.35 0 1 1 3.35-3.35A3.35 3.35 0 0 1 49.07 18zm0 0"/><path class="cls-3" d="M7.84 28.81l-6.7 6.69 27.07 27.13 6.74-6.71zm0 0"/><g class="cls-4"><path class="cls-5" d="M49.07 11.29a3.35 3.35 0 1 1-3.35 3.35 3.35 3.35 0 0 1 3.35-3.35m0-4.56A7.91 7.91 0 1 0 57 14.64a7.92 7.92 0 0 0-7.92-7.91zm0 0"/><path class="cls-6" d="M61.45 30.11a1.23 1.23 0 0 0-.31-.34l-1.61 1.59c.6 1.13 4.81 9.79-3.3 17.91-3.13 3.12-10.41 4.44-15.87 1.34s-7.28-9.7-5-18.5a1.14 1.14 0 1 0-2.2-.56c-3.4 13.35 2.37 18.92 6.11 21.05a16.83 16.83 0 0 0 8.23 2.06c4 0 7.91-1.3 10.38-3.77a17.53 17.53 0 0 0 3.6-20.77zM49.93 17.87a3.36 3.36 0 0 0 1.93-1.36l-3.26-2.7C25.38-3.61.72 13.61.48 13.79a1.14 1.14 0 1 0 1.33 1.86c.23-.16 23.53-16.44 45.38 0zm0 0"/></g></svg>