<svg id="Layer_1" data-name="Layer 1" xmlns="http://www.w3.org/2000/svg" viewBox="0 0 64 64"><defs><style>.cls-1,.cls-3,.cls-5,.cls-7,.cls-9{fill:none}.cls-2{clip-path:url(#clip-path)}.cls-3{stroke:#556080}.cls-3,.cls-5{stroke-linejoin:round}.cls-3,.cls-5,.cls-7,.cls-9{stroke-width:1.6px}.cls-4{fill:#949493}.cls-5{stroke:#c7cac7}.cls-6{fill:#e7eced}.cls-7{stroke:#424a60}.cls-7,.cls-9{stroke-miterlimit:10}.cls-8{fill:#424a60}.cls-9{stroke:#e7eced}.cls-10{fill:#efce4a}.cls-11{fill:#1a9172}.cls-12{fill:#25ae88}</style><clipPath id="clip-path"><path class="cls-1" d="M1.97 0h60.06v64H1.97z"/></clipPath></defs><title>icons</title><g class="cls-2"><path class="cls-3" d="M29.34 2.9c-6.41 4-18.62 14.93-18.62 14.93h43.76S42.27 6.94 35.86 2.9"/></g><path class="cls-4" d="M37 5.8a4.38 4.38 0 1 1-4.4-4.38A4.38 4.38 0 0 1 37 5.8zm0 0"/><g class="cls-2"><path class="cls-5" d="M37 5.8a4.38 4.38 0 1 1-4.4-4.38A4.38 4.38 0 0 1 37 5.8zm0 0"/></g><path class="cls-6" d="M3.06 17.83h57.98v43.76H3.06z"/><g class="cls-2"><path class="cls-7" d="M3.06 17.83h57.98v43.76H3.06z"/></g><path class="cls-8" d="M7.44 22.21h49.23v35.01H7.44z"/><g class="cls-2"><path class="cls-9" d="M7.44 22.21h49.23v35.01H7.44z"/></g><path class="cls-10" d="M22.28 30.49a5 5 0 1 1-5-5 5 5 0 0 1 5 5zm0 0"/><path class="cls-11" d="M55.57 46.4l-1.1-1.21-13.12-12-11.49 12.54 10.4 10.4h15.31zm0 0"/><path class="cls-12" d="M8.53 56.12h31.73L23.87 39.73 8.53 53.23zm0 0"/></svg>