<svg id="Layer_1" data-name="Layer 1" xmlns="http://www.w3.org/2000/svg" viewBox="0 0 64 64"><defs><style>.cls-1,.cls-6{fill:none}.cls-2{fill:#e7eced}.cls-3{fill:#c7d0d3}.cls-4{fill:#fff}.cls-5{clip-path:url(#clip-path)}.cls-6{stroke:#556080;stroke-linecap:round;stroke-miterlimit:10;stroke-width:1.6px}</style><clipPath id="clip-path"><path class="cls-1" d="M8.94 0h46.12v64H8.94z"/></clipPath></defs><title>icons</title><path class="cls-2" d="M48.59 62.57h-34a3.25 3.25 0 0 1-3.25-3.25V16.09h40.51v43.23a3.26 3.26 0 0 1-3.25 3.25zm0 0"/><path class="cls-3" d="M54.22 16.09H8.94V12a3 3 0 0 1 3-3h39.24a3 3 0 0 1 3 3zm0 0"/><path class="cls-4" d="M24.43 8.94V4.17a2.39 2.39 0 0 1 2.39-2.38h9.53a2.39 2.39 0 0 1 2.39 2.38v4.77zm0 0"/><g class="cls-5"><path class="cls-6" d="M24.43 8.94V4.17a2.39 2.39 0 0 1 2.39-2.38h9.53a2.39 2.39 0 0 1 2.39 2.38v4.77zm0 0"/></g><path class="cls-3" d="M18.47 25.63a1.19 1.19 0 1 1-1.19-1.19 1.19 1.19 0 0 1 1.19 1.19zm0 7.15a1.19 1.19 0 1 1-1.19-1.19 1.18 1.18 0 0 1 1.19 1.19zM22 22a1.19 1.19 0 1 1-1.19-1.19A1.19 1.19 0 0 1 22 22zm7.2 0a1.19 1.19 0 1 1-1.2-1.14A1.19 1.19 0 0 1 29.2 22zM22 29.2a1.19 1.19 0 1 1-1.14-1.2A1.19 1.19 0 0 1 22 29.2zm7.2 0A1.19 1.19 0 1 1 28 28a1.19 1.19 0 0 1 1.2 1.2zm-3.58-3.57a1.19 1.19 0 1 1-1.19-1.19 1.19 1.19 0 0 1 1.19 1.19zm7.15 0a1.19 1.19 0 1 1-1.19-1.19 1.19 1.19 0 0 1 1.19 1.19zm-7.15 7.15a1.19 1.19 0 1 1-1.19-1.19 1.18 1.18 0 0 1 1.19 1.19zm7.15 0a1.19 1.19 0 1 1-1.19-1.19 1.19 1.19 0 0 1 1.19 1.19zM36.35 22a1.19 1.19 0 1 1-1.19-1.19A1.18 1.18 0 0 1 36.35 22zm7.15 0a1.19 1.19 0 1 1-1.19-1.19A1.19 1.19 0 0 1 43.5 22zm-7.15 7.2a1.19 1.19 0 1 1-1.19-1.2 1.19 1.19 0 0 1 1.19 1.19zm7.15 0a1.19 1.19 0 1 1-1.19-1.2 1.19 1.19 0 0 1 1.19 1.2zm-3.57-3.57a1.19 1.19 0 1 1-1.19-1.19 1.2 1.2 0 0 1 1.19 1.19zm7.15 0a1.19 1.19 0 1 1-1.19-1.19 1.2 1.2 0 0 1 1.19 1.19zm-7.15 7.15a1.19 1.19 0 1 1-1.19-1.19 1.19 1.19 0 0 1 1.19 1.19zm7.15 0a1.19 1.19 0 1 1-1.19-1.19 1.19 1.19 0 0 1 1.19 1.19zm-28.61 7.14a1.19 1.19 0 1 1-1.19-1.19 1.18 1.18 0 0 1 1.19 1.19zm0 7.15a1.19 1.19 0 1 1-1.19-1.19 1.19 1.19 0 0 1 1.19 1.19zM22 36.35a1.19 1.19 0 1 1-1.19-1.19A1.2 1.2 0 0 1 22 36.35zm7.2 0a1.19 1.19 0 1 1-1.2-1.19 1.2 1.2 0 0 1 1.19 1.19zM22 43.5a1.19 1.19 0 1 1-1.19-1.19A1.2 1.2 0 0 1 22 43.5zm7.2 0a1.19 1.19 0 1 1-1.2-1.19 1.2 1.2 0 0 1 1.2 1.19zm-3.58-3.58a1.19 1.19 0 1 1-1.19-1.19 1.19 1.19 0 0 1 1.19 1.19zm7.15 0a1.19 1.19 0 1 1-1.19-1.19 1.19 1.19 0 0 1 1.19 1.19zm-7.15 7.15a1.19 1.19 0 1 1-1.19-1.19 1.19 1.19 0 0 1 1.19 1.19zm7.15 0a1.19 1.19 0 1 1-1.19-1.19 1.19 1.19 0 0 1 1.19 1.19zm3.58-10.72a1.19 1.19 0 1 1-1.19-1.19 1.19 1.19 0 0 1 1.19 1.19zm7.15 0a1.19 1.19 0 1 1-1.19-1.19 1.19 1.19 0 0 1 1.19 1.19zm-7.15 7.15a1.19 1.19 0 1 1-1.19-1.19 1.19 1.19 0 0 1 1.19 1.19zm7.15 0a1.19 1.19 0 1 1-1.19-1.19 1.19 1.19 0 0 1 1.19 1.19zm-3.57-3.58a1.19 1.19 0 1 1-1.19-1.19 1.19 1.19 0 0 1 1.19 1.19zm7.15 0a1.19 1.19 0 1 1-1.19-1.19 1.19 1.19 0 0 1 1.19 1.19zm-7.15 7.15a1.19 1.19 0 1 1-1.19-1.19 1.19 1.19 0 0 1 1.19 1.19zm7.15 0a1.19 1.19 0 1 1-1.19-1.19 1.19 1.19 0 0 1 1.19 1.19zm-28.61 7.16A1.19 1.19 0 1 1 17.28 53a1.19 1.19 0 0 1 1.19 1.19zM22 50.65a1.19 1.19 0 1 1-1.19-1.19A1.19 1.19 0 0 1 22 50.65zm7.2 0a1.19 1.19 0 1 1-1.2-1.19 1.19 1.19 0 0 1 1.19 1.19zM22 57.8a1.19 1.19 0 1 1-1.19-1.19A1.19 1.19 0 0 1 22 57.8zm7.2 0a1.19 1.19 0 1 1-1.2-1.19 1.19 1.19 0 0 1 1.2 1.19zm-3.58-3.57A1.19 1.19 0 1 1 24.43 53a1.19 1.19 0 0 1 1.19 1.19zm7.15 0A1.19 1.19 0 1 1 31.58 53a1.19 1.19 0 0 1 1.19 1.19zm3.58-3.58a1.19 1.19 0 1 1-1.19-1.19 1.18 1.18 0 0 1 1.19 1.19zm7.15 0a1.19 1.19 0 1 1-1.19-1.19 1.18 1.18 0 0 1 1.19 1.19zm-7.15 7.15a1.19 1.19 0 1 1-1.19-1.19 1.18 1.18 0 0 1 1.19 1.19zm7.15 0a1.19 1.19 0 1 1-1.19-1.19 1.19 1.19 0 0 1 1.19 1.19zm-3.57-3.57a1.19 1.19 0 1 1-1.2-1.23 1.2 1.2 0 0 1 1.19 1.19zm7.15 0A1.19 1.19 0 1 1 45.89 53a1.2 1.2 0 0 1 1.19 1.19zm0 0"/></svg>