<svg id="Layer_1" data-name="Layer 1" xmlns="http://www.w3.org/2000/svg" viewBox="0 0 64 64"><defs><style>.cls-1{fill:#dc4e41}.cls-2{fill:#fff}</style></defs><title>icons</title><path class="cls-1" d="M63.48 31.73A31.56 31.56 0 1 1 31.91.17a31.56 31.56 0 0 1 31.57 31.56zm0 0"/><path class="cls-1" d="M11.34 33.15a13 13 0 0 0 8.78 12.3c4.85 1.63 10.8.41 14-3.74C36.5 38.8 37 34.92 36.78 31.3H24.34v4.43c2.48.07 5 0 7.46.09a7.19 7.19 0 0 1-4.23 4.93A8.22 8.22 0 1 1 22 25.26c2.66-.94 5.41.12 7.69 1.5 1.15-1.08 2.24-2.24 3.3-3.4a13.08 13.08 0 0 0-21.69 9.79zm33.52-5.6v3.72h-3.72V35h3.72v3.72h3.7V35h3.71v-3.7h-3.71v-3.71zm0 0"/><path class="cls-2" d="M11.34 33.15A13.08 13.08 0 0 1 33 23.36c-1.06 1.17-2.15 2.32-3.3 3.4-2.28-1.38-5-2.44-7.7-1.5a8.22 8.22 0 1 0 5.54 15.46 7.19 7.19 0 0 0 4.26-4.92c-2.49 0-5 0-7.46-.09v-4.43h12.45c.25 3.62-.28 7.5-2.64 10.41-3.22 4.15-9.18 5.37-14 3.74a13 13 0 0 1-8.77-12.3zm33.52-5.6h3.7v3.72h3.71V35h-3.71v3.72h-3.7v-3.71h-3.72v-3.7h3.72v-3.72zm0 0"/></svg>