<svg id="Layer_1" data-name="Layer 1" xmlns="http://www.w3.org/2000/svg" viewBox="0 0 64 64"><defs><style>.cls-1{fill:#55acee}.cls-2{fill:#f1f2f2}</style></defs><title>icons</title><path class="cls-1" d="M63.48 31.73A31.56 31.56 0 1 1 31.91.17a31.56 31.56 0 0 1 31.57 31.56zm0 0"/><path class="cls-2" d="M51.25 22.86A15.07 15.07 0 0 1 46.91 24a7.59 7.59 0 0 0 3.32-4.17 15.16 15.16 0 0 1-4.79 1.83 7.55 7.55 0 0 0-12.86 6.88A21.42 21.42 0 0 1 17 20.7a7.56 7.56 0 0 0 2.33 10.07 7.5 7.5 0 0 1-3.33-.95v.1a7.55 7.55 0 0 0 6 7.4 7.54 7.54 0 0 1-3.41.13 7.55 7.55 0 0 0 7 5.24 15.27 15.27 0 0 1-11.17 3.12A21.35 21.35 0 0 0 26 49.2c13.88 0 21.47-11.5 21.47-21.47v-1a15.31 15.31 0 0 0 3.76-3.9zm0 0"/></svg>