<svg id="Layer_1" data-name="Layer 1" xmlns="http://www.w3.org/2000/svg" viewBox="0 0 64 64"><defs><style>.cls-1{fill:none}.cls-2{clip-path:url(#clip-path)}.cls-3{fill:#e7eced}.cls-4{fill:#3083c9}.cls-5{fill:#fff}</style><clipPath id="clip-path"><path class="cls-1" d="M0 13.24h64v37.53H0z"/></clipPath></defs><title>icons</title><g class="cls-2"><path class="cls-3" d="M63 31.7l-8.08 8.08a32.93 32.93 0 0 1-46.58 0L0 31.48l8.08-8.08a32.93 32.93 0 0 1 46.58 0zm0 0"/></g><path class="cls-4" d="M44.85 31.56a13.4 13.4 0 1 1-13.4-13.41 13.4 13.4 0 0 1 13.4 13.41zm0 0"/><path class="cls-5" d="M23.63 31.56a1.12 1.12 0 0 1-1.12-1.12 7.83 7.83 0 0 1 7.82-7.82 1.12 1.12 0 0 1 0 2.24 5.59 5.59 0 0 0-5.58 5.58 1.12 1.12 0 0 1-1.12 1.12zm0 0"/></svg>