<svg id="Layer_1" data-name="Layer 1" xmlns="http://www.w3.org/2000/svg" viewBox="0 0 64 64"><defs><style>.cls-1{fill:none}.cls-2{fill:#efce4a}.cls-3{clip-path:url(#clip-path)}.cls-4{fill:#f7e6a1}.cls-5{fill:#556080}</style><clipPath id="clip-path"><path class="cls-1" d="M2.97 0h58.05v64H2.97z"/></clipPath></defs><title>icons</title><path class="cls-2" d="M32.12 11.31a18.65 18.65 0 0 0-5.83 36.36V59.1h2.33v3.5h7v-3.5h2.33V47.67a18.65 18.65 0 0 0-5.83-36.36zm0 0"/><g class="cls-3"><path class="cls-2" d="M32.12.82A1.17 1.17 0 0 0 30.95 2v4.64a1.17 1.17 0 1 0 2.33 0V2A1.17 1.17 0 0 0 32.12.82zm27.97 27.97h-4.66a1.17 1.17 0 1 0 0 2.33h4.66a1.17 1.17 0 1 0 0-2.33zm0 0"/></g><path class="cls-2" d="M8.8 28.79H4.14a1.17 1.17 0 1 0 0 2.33H8.8a1.17 1.17 0 1 0 0-2.33zM51.08 9.35l-3.3 3.3a1.16 1.16 0 1 0 1.65 1.65l3.3-3.3a1.16 1.16 0 1 0-1.65-1.65zM14.81 45.62l-3.3 3.3a1.16 1.16 0 1 0 1.65 1.65l3.3-3.3a1.16 1.16 0 1 0-1.65-1.65zm34.62 0a1.16 1.16 0 1 0-1.65 1.65l3.3 3.3a1.16 1.16 0 1 0 1.65-1.65zM13.16 9.35A1.16 1.16 0 0 0 11.51 11l3.3 3.3a1.16 1.16 0 0 0 1.65-1.65zm0 0"/><path class="cls-4" d="M19.29 31.13A1.17 1.17 0 0 1 18.12 30a14 14 0 0 1 14-14 1.17 1.17 0 0 1 0 2.33A11.67 11.67 0 0 0 20.46 30a1.17 1.17 0 0 1-1.17 1.17zm0 0"/><path class="cls-5" d="M26.29 50.94v8.16h2.33v3.5h7v-3.5h2.33v-8.16zm0 0"/></svg>