<svg id="Layer_1" data-name="Layer 1" xmlns="http://www.w3.org/2000/svg" viewBox="0 0 64 64"><defs><style>.cls-1{fill:#c7cac7}.cls-2{fill:#e7eced}.cls-3{fill:#43b05c}</style></defs><title>icons</title><path class="cls-1" d="M26.48 0h11.03v4.41H26.48z"/><path class="cls-2" d="M45.83 64H18.17a2.72 2.72 0 0 1-2.72-2.71V7.13a2.72 2.72 0 0 1 2.72-2.72h27.66a2.72 2.72 0 0 1 2.72 2.72v54.16A2.72 2.72 0 0 1 45.83 64zm0 0"/><path class="cls-3" d="M15.45 35.31v26A2.72 2.72 0 0 0 18.17 64h27.66a2.72 2.72 0 0 0 2.72-2.71v-26zm0 0"/></svg>