<svg id="Layer_1" data-name="Layer 1" xmlns="http://www.w3.org/2000/svg" viewBox="0 0 64 64"><defs><style>.cls-1{fill:none}.cls-2{clip-path:url(#clip-path)}.cls-3{fill:#d75a4a}</style><clipPath id="clip-path"><path class="cls-1" d="M0 1.54h64v60.92H0z"/></clipPath></defs><title>icons</title><g class="cls-2"><path class="cls-3" d="M31.93 12.24A16.82 16.82 0 0 1 47.35 1.8c9.28 0 16 7.94 16.8 17.41a17.25 17.25 0 0 1-.54 6.58 29.08 29.08 0 0 1-8.87 14.78L31.93 60.92 9.51 40.57A29.08 29.08 0 0 1 .65 25.78a17.36 17.36 0 0 1-.55-6.57C.94 9.74 7.63 1.8 16.91 1.8c6.89 0 12.43 4.3 15 10.44zm0 0"/></g></svg>