<svg id="Layer_1" data-name="Layer 1" xmlns="http://www.w3.org/2000/svg" viewBox="0 0 64 64"><defs><style>.cls-1{fill:#556080}.cls-2{fill:#7383bf}.cls-3{fill:#38454f}.cls-4{fill:#404960}.cls-5{fill:#fff}</style></defs><title>icons</title><path class="cls-1" d="M32 0a32 32 0 0 0-21.23 55.92 34.07 34.07 0 0 1 42.4.06A32 32 0 0 0 32 0zm0 0"/><path class="cls-2" d="M32 3.31a1.11 1.11 0 0 0-1.1 1.1v2.21a1.1 1.1 0 0 0 2.21 0V4.41A1.11 1.11 0 0 0 32 3.31zM60.14 30.9h-2.21a1.1 1.1 0 1 0 0 2.21h2.21a1.1 1.1 0 0 0 0-2.21zM7.17 32a1.1 1.1 0 0 0-1.1-1.1H3.86a1.1 1.1 0 0 0 0 2.21h2.2A1.1 1.1 0 0 0 7.17 32zM46.62 7.23a1.1 1.1 0 0 0-1.51.4L44 9.54a1.11 1.11 0 0 0 .4 1.51 1.08 1.08 0 0 0 .55.14 1.1 1.1 0 0 0 1-.55L47 8.73a1.1 1.1 0 0 0-.4-1.5zm10.3 38.43L55 44.57a1.1 1.1 0 1 0-1.1 1.91l1.91 1.1a1.07 1.07 0 0 0 .55.15 1.11 1.11 0 0 0 .55-2.06zM10.1 18.63l-1.91-1.1a1.1 1.1 0 1 0-1.1 1.91L9 20.55a1.12 1.12 0 0 0 .55.14 1.1 1.1 0 0 0 .55-2.06zM18.88 7.6A1.1 1.1 0 1 0 17 8.7l1.1 1.91a1.11 1.11 0 0 0 1 .56 1.06 1.06 0 0 0 .55-.15A1.1 1.1 0 0 0 20 9.51zm35.3 12.58a1.09 1.09 0 0 0 .56-.15l1.91-1.1A1.1 1.1 0 1 0 55.54 17l-1.91 1.1a1.11 1.11 0 0 0 .55 2.06zM8.71 44L6.8 45.15a1.1 1.1 0 0 0 .55 2.06 1.12 1.12 0 0 0 .55-.15L9.81 46a1.1 1.1 0 0 0-1.1-2zm0 0"/><path class="cls-3" d="M10.76 55.93a32 32 0 0 0 42.42.07 34.08 34.08 0 0 0-42.42-.05zm0 0"/><path class="cls-4" d="M46.37 18.95a1.11 1.11 0 0 0-1.56 0l-9.25 9.26a4.54 4.54 0 0 0-5.57.54 4.43 4.43 0 1 0 7 1.12l9.35-9.36a1.1 1.1 0 0 0 0-1.56zm-11.7 14.48a2.26 2.26 0 0 1-3.13 0 2.21 2.21 0 1 1 3.13 0zm0 0"/><path class="cls-5" d="M45.27 17.84a1.1 1.1 0 0 0-1.56 0l-9.26 9.26a4.55 4.55 0 0 0-5.57.54 4.41 4.41 0 1 0 7.53 3.13 4.34 4.34 0 0 0-.5-2l9.35-9.35a1.1 1.1 0 0 0 0-1.56zM33.56 32.32a2.26 2.26 0 0 1-3.12 0A2.21 2.21 0 0 1 32 28.56a2.21 2.21 0 0 1 1.56 3.77zm0 0"/></svg>