<svg id="Layer_1" data-name="Layer 1" xmlns="http://www.w3.org/2000/svg" viewBox="0 0 64 64"><defs><style>.cls-1{fill:#7383bf}.cls-2{fill:#424a60}.cls-3{fill:#363e4b}.cls-4{fill:#7fabda}.cls-5{fill:#a1c8ec}.cls-6{fill:#556080}</style></defs><title>icons</title><path class="cls-1" d="M27.08 47.16a13.54 13.54 0 1 1-13.54-13.54 13.54 13.54 0 0 1 13.54 13.54zm0 0"/><path class="cls-2" d="M17.55 3.31a9.39 9.39 0 0 0-8.5 7.28L1.76 40.51a13.53 13.53 0 0 1 25.32 6.65V12.4a9.1 9.1 0 0 0-9.53-9.09zm0 0"/><path class="cls-3" d="M27.08 18.86h9.84v16h-9.84z"/><path class="cls-1" d="M64 47.16a13.54 13.54 0 1 1-13.54-13.54A13.54 13.54 0 0 1 64 47.16zm0 0"/><path class="cls-2" d="M36.92 47.7v-.54.54zm9.52-44.39a9.37 9.37 0 0 1 8.5 7.28l7.3 29.92a13.53 13.53 0 0 0-25.32 6.65V12.4a9.1 9.1 0 0 1 9.52-9.09zm0 0"/><path class="cls-4" d="M23.38 47.16a9.85 9.85 0 1 1-9.84-9.84 9.84 9.84 0 0 1 9.84 9.84zm36.92 0a9.85 9.85 0 1 1-9.84-9.84 9.84 9.84 0 0 1 9.84 9.84zm0 0"/><path class="cls-5" d="M43.44 54.06l13.92-13.91a9.79 9.79 0 0 0-4.45-2.51l-12 12a9.87 9.87 0 0 0 2.51 4.45zM16.93 37.92L4.3 50.55a9.84 9.84 0 0 0 2.86 4.1L21 40.78a9.84 9.84 0 0 0-4.1-2.86zm0 0"/><path class="cls-2" d="M29.54 18.86h4.95v16h-4.95z"/><path class="cls-6" d="M41.84 36.72a13.52 13.52 0 0 1 8.62-3.1c.35 0 .68 0 1 .07l-4.7-30.34h-.32a9 9 0 0 0-4.6 1zm-28.3-3.1a13.49 13.49 0 0 1 8.61 3.1V4.31a9.07 9.07 0 0 0-4.6-1h-.32l-4.71 30.38c.34 0 .67-.07 1-.07zm0 0"/></svg>