<svg id="Layer_1" data-name="Layer 1" xmlns="http://www.w3.org/2000/svg" viewBox="0 0 64 64"><defs><style>.cls-1{fill:#ecf0fa}.cls-2{fill:#f6f7fc}.cls-3{fill:#e6caa6}.cls-4{fill:#d3d8e9}.cls-5{fill:#aaaec6}.cls-6{fill:#989cb1}.cls-7{fill:#f0d9b7}.cls-8{fill:#76768a}</style></defs><title>icons</title><path class="cls-1" d="M15.94 9.5l-1.6 3.19h12.14L24.89 9.5a2.21 2.21 0 0 0-2-1.22h-5a2.21 2.21 0 0 0-2 1.22z"/><path class="cls-2" d="M49.66 28.14H14.34a1.1 1.1 0 0 1-1.1-1.1V11.59a1.1 1.1 0 0 1 1.1-1.1h35.32a1.1 1.1 0 0 1 1.1 1.1V27a1.1 1.1 0 0 1-1.1 1.1z"/><path class="cls-1" d="M51.86 30.34H12.14a1.1 1.1 0 0 1-1.1-1.1V13.79a1.1 1.1 0 0 1 1.1-1.1h39.72a1.1 1.1 0 0 1 1.1 1.1v15.45a1.1 1.1 0 0 1-1.1 1.1z"/><path class="cls-3" d="M63.72 32.05l-4.92-8.86a1.1 1.1 0 0 0-1-.57H6.17a1.1 1.1 0 0 0-1 .57L.28 32.05A2.21 2.21 0 0 0 0 33.12v4.95h64v-4.95a2.21 2.21 0 0 0-.28-1.07z"/><path class="cls-4" d="M13.73 13.91l-1.6 3.19h13.5L24 13.91a2.21 2.21 0 0 0-2-1.22h-6.29a2.21 2.21 0 0 0-2 1.22z"/><path class="cls-2" d="M51.86 32.55H12.14a1.1 1.1 0 0 1-1.1-1.1V16a1.1 1.1 0 0 1 1.1-1.1h39.72A1.1 1.1 0 0 1 53 16v15.45a1.1 1.1 0 0 1-1.1 1.1z"/><path class="cls-4" d="M54.07 34.76H9.93a1.1 1.1 0 0 1-1.1-1.1V18.21a1.1 1.1 0 0 1 1.1-1.1h44.14a1.1 1.1 0 0 1 1.1 1.1v15.45a1.1 1.1 0 0 1-1.1 1.1z"/><path class="cls-5" d="M11.53 18.32l-1.6 3.19h16.55l-1.6-3.19a2.21 2.21 0 0 0-2-1.22H13.5a2.21 2.21 0 0 0-2 1.22z"/><path class="cls-2" d="M54.07 37H9.93a1.1 1.1 0 0 1-1.1-1.1V20.41a1.1 1.1 0 0 1 1.1-1.1h44.14a1.1 1.1 0 0 1 1.1 1.1v15.45a1.1 1.1 0 0 1-1.1 1.1z"/><path class="cls-6" d="M56.28 39.17H7.72a1.1 1.1 0 0 1-1.1-1.1V22.62a1.1 1.1 0 0 1 1.1-1.1h48.56a1.1 1.1 0 0 1 1.1 1.1v15.45a1.1 1.1 0 0 1-1.1 1.1z"/><path class="cls-7" d="M62.9 32.55H44.82a1.1 1.1 0 0 0-1 .61l-1.29 2.58a2.21 2.21 0 0 1-2 1.22h-17.1a2.21 2.21 0 0 1-2-1.22l-1.29-2.58a1.1 1.1 0 0 0-1-.61H1.1A1.1 1.1 0 0 0 0 33.66v21a1.1 1.1 0 0 0 1.1 1.1h61.8a1.1 1.1 0 0 0 1.1-1.1v-21a1.1 1.1 0 0 0-1.1-1.1z"/><path class="cls-2" d="M40.83 30.34h13.24a1.1 1.1 0 0 0 1.1-1.1v-4.41a1.1 1.1 0 0 0-1.1-1.1H40.83a1.1 1.1 0 0 0-1.1 1.1v4.41a1.1 1.1 0 0 0 1.1 1.1z"/><path class="cls-8" d="M47.45 25.93H43a1.1 1.1 0 0 0-1.1 1.1 1.1 1.1 0 0 0 1.1 1.1h4.41a1.1 1.1 0 0 0 1.1-1.1 1.1 1.1 0 0 0-1.1-1.1z"/><path class="cls-6" d="M51.86 25.93h-1.1a1.1 1.1 0 0 0-1.1 1.1 1.1 1.1 0 0 0 1.1 1.1h1.1A1.1 1.1 0 0 0 53 27a1.1 1.1 0 0 0-1.1-1.1z"/></svg>