<svg id="Layer_1" data-name="Layer 1" xmlns="http://www.w3.org/2000/svg" viewBox="0 0 64 64"><defs><style>.cls-1,.cls-5{fill:none}.cls-2{fill:#e7eced}.cls-3{fill:#3083c9}.cls-4{clip-path:url(#clip-path)}.cls-5{stroke:#ebba16;stroke-linecap:round;stroke-miterlimit:10;stroke-width:1.6px}.cls-6{fill:#fff}</style><clipPath id="clip-path"><path class="cls-1" d="M0 4.19h64v55.62H0z"/></clipPath></defs><title>icons</title><path class="cls-2" d="M63 31.8l-8.08 8.08a32.93 32.93 0 0 1-46.58 0L0 31.58l8.08-8.08a32.93 32.93 0 0 1 46.58 0zm0 0"/><path class="cls-3" d="M44.85 31.66a13.4 13.4 0 1 1-13.4-13.4 13.4 13.4 0 0 1 13.4 13.4zm0 0"/><g class="cls-4"><path class="cls-5" d="M6.76 57.35L58.7 5.41"/></g><path class="cls-6" d="M23.87 31.66a1.12 1.12 0 0 1-1.12-1.11 7.83 7.83 0 0 1 7.82-7.82 1.12 1.12 0 0 1 0 2.24A5.59 5.59 0 0 0 25 30.54a1.11 1.11 0 0 1-1.12 1.11zm0 0"/></svg>