<svg id="Layer_1" data-name="Layer 1" xmlns="http://www.w3.org/2000/svg" viewBox="0 0 64 64"><defs><style>.cls-1,.cls-3{fill:none}.cls-2{clip-path:url(#clip-path)}.cls-3{stroke:#556080;stroke-linecap:round;stroke-miterlimit:10;stroke-width:1.6px}.cls-4{fill:#c7cac7}.cls-5{fill:#afb6bb}</style><clipPath id="clip-path"><path class="cls-1" d="M14.28 0h35.45v64H14.28z"/></clipPath></defs><title>icons</title><g class="cls-2"><path class="cls-3" d="M48.19 30.94v6.57a16.41 16.41 0 0 1-32.82 0v-6.57"/></g><path class="cls-4" d="M31.78 48.45a11 11 0 0 1-10.94-10.94V11.25a10.94 10.94 0 0 1 21.88 0v26.26a11 11 0 0 1-10.94 10.94zm0 0"/><g class="cls-2"><path class="cls-3" d="M31.78 53.92v7.66m6.57 0H25.22"/></g><path class="cls-5" d="M42.72 37.51V11.25A11 11 0 0 0 31.78.31v48.14a11 11 0 0 0 10.94-10.94zm0 0"/></svg>