<svg id="Layer_1" data-name="Layer 1" xmlns="http://www.w3.org/2000/svg" viewBox="0 0 64 64"><defs><style>.cls-1,.cls-4{fill:none}.cls-2{fill:#424a60}.cls-3{clip-path:url(#clip-path)}.cls-4{stroke:#e7eced;stroke-miterlimit:10;stroke-width:1.6px}.cls-5{fill:#efce4a}.cls-6{fill:#e7eced}.cls-7{fill:#1a9172}.cls-8{fill:#25ae88}</style><clipPath id="clip-path"><path class="cls-1" d="M2.32 0h59.35v64H2.32z"/></clipPath></defs><title>icons</title><path class="cls-2" d="M3.52 1.79h57.2v59.59H3.52z"/><g class="cls-3"><path class="cls-4" d="M3.52 1.79h57.2v59.59H3.52z"/></g><path class="cls-5" d="M23.26 16.77a5.44 5.44 0 1 1-5.45-5.45 5.45 5.45 0 0 1 5.45 5.45zm0 0"/><path class="cls-6" d="M3.52 49.46h57.2v11.92H3.52z"/><path class="cls-7" d="M59.53 38.86l-1.19-1.32L44 24.43 31.53 38.14l6.53 6.54 4.78 4.79h16.69zm0 0"/><path class="cls-8" d="M38.06 44.67L25 31.6 4.71 49.46h38.13zm0 0"/></svg>