<svg id="Layer_1" data-name="Layer 1" xmlns="http://www.w3.org/2000/svg" viewBox="0 0 64 64"><defs><style>.cls-1{fill:#ebba16}.cls-2{fill:#fff}</style></defs><title>icons</title><path class="cls-1" d="M64 32A32 32 0 1 1 32 0a32 32 0 0 1 32 32zm0 0"/><path class="cls-2" d="M48.55 32L24.28 48.55v-33.1zm0 0"/><path class="cls-2" d="M24.28 49.66a1.11 1.11 0 0 1-1.1-1.1V15.45a1.1 1.1 0 0 1 1.72-.91l24.28 16.55a1.1 1.1 0 0 1 0 1.82L24.9 49.46a1.09 1.09 0 0 1-.62.19zm1.1-32.12v28.93L46.6 32zm0 0"/></svg>