<svg id="Layer_1" data-name="Layer 1" xmlns="http://www.w3.org/2000/svg" viewBox="0 0 64 64"><defs><style>.cls-1{fill:#bf4d90}.cls-2{fill:#ed8a19}.cls-3{fill:#7fabda}.cls-4{fill:#a4e869}.cls-5{fill:#efce4a}.cls-6{fill:#61b872}.cls-7{fill:#ed7161}.cls-8{fill:#9777a8}</style></defs><title>icons</title><path class="cls-1" d="M19.39 32a9.8 9.8 0 0 1-3.76-2.34l-6.25-6.24a9.8 9.8 0 0 1-1-1.21 9.92 9.92 0 0 0 1.54 19.72h8.83a9.85 9.85 0 0 0 9.82-11.34A9.75 9.75 0 0 1 25.9 32a10 10 0 0 0-6.52 0zm0 0"/><path class="cls-2" d="M41.8 8.36a9.92 9.92 0 0 0-19.58 0 9.67 9.67 0 0 1 1.21 1l6.24 6.24A9.8 9.8 0 0 1 32 19.38a10 10 0 0 1 0 6.51 9.89 9.89 0 0 1-1.42 2.68 8.93 8.93 0 0 0 2.83 0 9.81 9.81 0 0 0 2.9-.89 10 10 0 0 0 4.61-4.61 9.78 9.78 0 0 0 1-4.32V9.93a9.62 9.62 0 0 0-.14-1.57zm0 0"/><path class="cls-3" d="M40.59 54.63l-6.25-6.25A9.78 9.78 0 0 1 32 44.62a10 10 0 0 1 0-6.52 9.76 9.76 0 0 1 1.42-2.68 8.93 8.93 0 0 0-2.83 0 9.76 9.76 0 0 0-2.9.89 10 10 0 0 0-4.61 4.61 9.84 9.84 0 0 0-1 4.32v8.82a10.15 10.15 0 0 0 .13 1.57 9.91 9.91 0 0 0 19.58 0 9.7 9.7 0 0 1-1.21-1zm0 0"/><path class="cls-4" d="M55.65 22.21a9.85 9.85 0 0 1-1 1.21l-6.24 6.24A9.79 9.79 0 0 1 44.63 32a10 10 0 0 1-6.51 0 9.73 9.73 0 0 1-2.68-1.42 9 9 0 0 0 0 2.84 10 10 0 0 0 5.5 7.5 9.85 9.85 0 0 0 4.32 1h8.83a10.09 10.09 0 0 0 1.57-.14 9.92 9.92 0 0 0 0-19.58zm0 0"/><path class="cls-5" d="M54.63 9.37a10 10 0 0 0-12.83-1 9.62 9.62 0 0 1 .14 1.57v8.83a9.78 9.78 0 0 1-1 4.32 10 10 0 0 1-4.61 4.61 9.81 9.81 0 0 1-2.9.89 9.73 9.73 0 0 0 .92 1.08 10.85 10.85 0 0 0 1.08.92A9.73 9.73 0 0 0 38.11 32a10 10 0 0 0 6.51 0 9.79 9.79 0 0 0 3.77-2.34l6.24-6.24a9.85 9.85 0 0 0 1-1.21 10 10 0 0 0-1-12.83zm0 0"/><path class="cls-6" d="M55.65 41.79a10.09 10.09 0 0 1-1.57.14h-8.83a9.85 9.85 0 0 1-4.32-1 10 10 0 0 1-5.5-7.5 10.85 10.85 0 0 0-1.08.92 9.61 9.61 0 0 0-.92 1.08A9.76 9.76 0 0 0 32 38.1a10 10 0 0 0 0 6.52 9.78 9.78 0 0 0 2.34 3.76l6.25 6.25a9.7 9.7 0 0 0 1.21 1 9.92 9.92 0 0 0 13.85-13.84zm0 0"/><path class="cls-7" d="M32 19.38a9.85 9.85 0 0 0-2.34-3.77l-6.23-6.24a9.67 9.67 0 0 0-1.21-1A9.91 9.91 0 0 0 8.37 22.2a9.79 9.79 0 0 1 1.56-.14h8.83a10 10 0 0 1 9.82 8.52 9 9 0 0 0 2-2A9.89 9.89 0 0 0 32 25.89a10 10 0 0 0 0-6.51zm0 0"/><path class="cls-1" d="M18.76 22.07H9.92a9.79 9.79 0 0 0-1.56.14 9.8 9.8 0 0 0 1 1.21l6.24 6.24A9.8 9.8 0 0 0 19.39 32a10.09 10.09 0 0 1 6.52 0 9.75 9.75 0 0 0 2.67-1.41 10 10 0 0 0-9.82-8.52zm0 0"/><path class="cls-8" d="M29.66 34.34a9.74 9.74 0 0 0-1.08-.92A9.87 9.87 0 0 0 25.9 32a10.09 10.09 0 0 0-6.52 0 9.83 9.83 0 0 0-3.76 2.34l-6.24 6.24a10.06 10.06 0 0 0-1 1.21 9.91 9.91 0 0 0 13.83 13.85 10.15 10.15 0 0 1-.13-1.57v-8.83a9.84 9.84 0 0 1 1-4.32 10 10 0 0 1 4.61-4.61 9.76 9.76 0 0 1 2.9-.89 9.66 9.66 0 0 0-.93-1.08zm0 0"/></svg>