<svg id="Layer_1" data-name="Layer 1" xmlns="http://www.w3.org/2000/svg" viewBox="0 0 64 64"><defs><style>.cls-1{fill:#edeada}.cls-2{fill:#f7e6a1}.cls-3{fill:#424a60}.cls-4{fill:#ebba16}.cls-5{fill:#ed7161}</style></defs><title>icons</title><path class="cls-1" d="M26.69 43.57l-8.58 2.34 2.34-8.58 32.9-32.9H0V64h59.57V10.69zm0 0"/><path class="cls-2" d="M20.65 43.37a1.11 1.11 0 0 1 0 1.56l-.39.39 6.39-1.74-6.2-6.2-1.74 6.39.39-.39a1.11 1.11 0 0 1 1.56 0zm0 0"/><path class="cls-3" d="M20.25 45.32l.39-.39a1.1 1.1 0 0 0-1.56-1.56l-.39.39-.58 2.15zm0 0"/><path class="cls-4" d="M56.32 13.92l-6.23-6.23-29.64 29.64 6.2 6.2zm0 0"/><path class="cls-5" d="M63.36 3.8L60.21.65a2.18 2.18 0 0 0-3.09 0l-3.91 3.91 6.24 6.24 3.91-3.9a2.19 2.19 0 0 0 0-3.1zm0 0"/><path class="cls-2" d="M53.21 4.56l6.24 6.24-3.12 3.12-6.24-6.24zm0 0"/></svg>