<svg id="Layer_1" data-name="Layer 1" xmlns="http://www.w3.org/2000/svg" viewBox="0 0 64 64"><defs><style>.cls-1{fill:#4b6daa}.cls-2{fill:#d8a852}.cls-3{fill:#fbce9d}.cls-4{fill:#f7b563}</style></defs><title>icons</title><path class="cls-1" d="M1.72 22.86h16V64h-16z"/><path class="cls-2" d="M14.29 53.72a4.57 4.57 0 1 1-4.57-4.58 4.57 4.57 0 0 1 4.57 4.58zm0 0"/><path class="cls-3" d="M61.15 29.72a4.57 4.57 0 0 0-4.58-4.57H38.74l1.13-5.28A37.52 37.52 0 0 0 40 7.48C39.48 4 36.39 0 33.16 0h-.27c-2.76 0-3.74 3-3.74 6.86C29.14 25.43 20 25.15 20 25.15h-2.29v36.56h33.15a4.57 4.57 0 1 0 0-9.14h3.43a4.57 4.57 0 0 0 0-9.15h3.43a4.56 4.56 0 0 0 4.57-4.57c0-2.85-1.84-3.93-4.57-4.34a39.53 39.53 0 0 0-4.57-.23h3.43a4.57 4.57 0 0 0 4.58-4.57zm0 0"/><path class="cls-4" d="M59.57 33.14H45.14a1.14 1.14 0 0 0 0 2.29h15.38a7.35 7.35 0 0 0-2.81-.91 39.53 39.53 0 0 0-4.57-.23h3.43a4.53 4.53 0 0 0 3-1.14zm1.14 9.15H45.14a1.14 1.14 0 0 0 0 2.28h12.14a4.54 4.54 0 0 0-3-1.14h3.43a4.53 4.53 0 0 0 3-1.14zm-3.43 9.14H42.86a1.14 1.14 0 1 0 0 2.29h11a4.52 4.52 0 0 0-3-1.14h3.43a4.53 4.53 0 0 0 3-1.14zm0 0"/></svg>