<svg id="Layer_1" data-name="Layer 1" xmlns="http://www.w3.org/2000/svg" viewBox="0 0 64 64"><defs><style>.cls-1{fill:#7383bf}.cls-2{fill:#424a60}</style></defs><title>icons</title><path class="cls-1" d="M22.46 32a10.1 10.1 0 1 1-10.1-10.1A10.1 10.1 0 0 1 22.46 32zm39.29 21.89a10.1 10.1 0 1 1-10.1-10.1 10.11 10.11 0 0 1 10.1 10.1zm0-43.79A10.1 10.1 0 1 1 51.65 0a10.1 10.1 0 0 1 10.1 10.1zm0 0"/><path class="cls-2" d="M21.35 28.47a1.13 1.13 0 0 0 .58-.16l21.23-12.78A1.12 1.12 0 1 0 42 13.6L20.77 26.39a1.12 1.12 0 0 0 .58 2.08zm21.81 20L21.93 35.58a1.12 1.12 0 0 0-1.16 1.92L42 50.39a1.08 1.08 0 0 0 .58.17 1.12 1.12 0 0 0 .58-2.08zm0 0"/></svg>