<svg id="Layer_1" data-name="Layer 1" xmlns="http://www.w3.org/2000/svg" viewBox="0 0 64 64"><defs><style>.cls-1{fill:#007ab9}.cls-2{fill:#f1f2f2}</style></defs><title>icons</title><path class="cls-1" d="M63.48 31.73A31.56 31.56 0 1 1 31.91.17a31.56 31.56 0 0 1 31.57 31.56zm0 0"/><path class="cls-2" d="M50.77 34.27v13h-7.54V35.15c0-3-1.09-5.13-3.82-5.13a4.13 4.13 0 0 0-3.87 2.76 5.11 5.11 0 0 0-.25 1.84v12.67h-7.55s.1-20.56 0-22.69h7.55v3.29-.07a7.49 7.49 0 0 1 6.8-3.75c5 0 8.68 3.24 8.68 10.21zM19.85 13.66a3.93 3.93 0 1 0-.1 7.84 3.93 3.93 0 1 0 .05-7.84zM16 47.29h7.54v-22.7H16zm0 0"/></svg>