<svg id="Layer_1" data-name="Layer 1" xmlns="http://www.w3.org/2000/svg" viewBox="0 0 64 64"><defs><style>.cls-1{fill:#996b52}.cls-2{fill:#6c4127}.cls-3{fill:#935f42}.cls-4{fill:#edeada}.cls-5{fill:#cec9ae}</style></defs><title>icons</title><path class="cls-1" d="M64 18.76H0V8.07a.34.34 0 0 1 .34-.34h63.32a.34.34 0 0 1 .34.34zm0 0"/><path class="cls-2" d="M63.76 7.73H.24a.11.11 0 0 1-.08-.19L6.62 0h50.76l6.46 7.54a.12.12 0 0 1-.09.19zm0 0"/><path class="cls-3" d="M3.31 18.76h57.38V64H3.31z"/><path class="cls-2" d="M19.86 25.38h24.28v8.83H19.86z"/><path class="cls-4" d="M16.55 41.93h30.9v13.24h-30.9z"/><path class="cls-5" d="M28.69 49.66h-5.52a1.1 1.1 0 1 0 0 2.21h5.52a1.1 1.1 0 1 0 0-2.21zm0-2.21h12.14a1.1 1.1 0 0 0 0-2.2H28.69a1.1 1.1 0 1 0 0 2.2zm-5.52 0a1.11 1.11 0 1 0-.79-1.89 1.19 1.19 0 0 0-.32.79 1.08 1.08 0 0 0 1.1 1.1zM33.42 50a1.13 1.13 0 0 0 0 1.57 1.17 1.17 0 0 0 .79.32A1.11 1.11 0 0 0 35 50a1.17 1.17 0 0 0-1.57 0zm7.41-.34h-1.1a1.1 1.1 0 1 0 0 2.21h1.1a1.1 1.1 0 0 0 0-2.21zm0 0"/></svg>