<svg id="Layer_1" data-name="Layer 1" xmlns="http://www.w3.org/2000/svg" viewBox="0 0 64 64"><defs><style>.cls-1{fill:#e7eced}.cls-2{fill:#c7cac7}</style></defs><title>icons</title><path class="cls-1" d="M61.81 25.85h-3.45A26.82 26.82 0 0 0 55 17.7l2.43-2.43a2.18 2.18 0 0 0 0-3.1l-5.6-5.61a2.2 2.2 0 0 0-3.1 0L46.29 9a27 27 0 0 0-8.14-3.37V2.19A2.19 2.19 0 0 0 36 0h-8a2.19 2.19 0 0 0-2.19 2.19v3.45A26.82 26.82 0 0 0 17.7 9l-2.42-2.43a2.2 2.2 0 0 0-3.1 0l-5.61 5.6a2.2 2.2 0 0 0 0 3.1L9 17.71a26.72 26.72 0 0 0-3.37 8.14H2.19A2.19 2.19 0 0 0 0 28v8a2.19 2.19 0 0 0 2.19 2.19h3.45A26.88 26.88 0 0 0 9 46.29l-2.43 2.43a2.2 2.2 0 0 0 0 3.1l5.61 5.6a2.19 2.19 0 0 0 3.1 0L17.71 55a27 27 0 0 0 8.14 3.37v3.44A2.19 2.19 0 0 0 28 64h8a2.19 2.19 0 0 0 2.19-2.19v-3.45a26.88 26.88 0 0 0 8.1-3.36l2.43 2.43a2.19 2.19 0 0 0 3.1 0l5.6-5.6a2.19 2.19 0 0 0 0-3.1L55 46.29a26.88 26.88 0 0 0 3.37-8.14h3.44A2.19 2.19 0 0 0 64 36v-8a2.19 2.19 0 0 0-2.19-2.19zM32 43.07A11.07 11.07 0 1 1 43.07 32 11.07 11.07 0 0 1 32 43.07zm0 0"/><path class="cls-2" d="M32 16a16 16 0 1 0 16 16 16 16 0 0 0-16-16zm0 27.08A11.07 11.07 0 1 1 43.07 32 11.07 11.07 0 0 1 32 43.07zm0 0"/></svg>