<svg id="Layer_1" data-name="Layer 1" xmlns="http://www.w3.org/2000/svg" viewBox="0 0 64 64"><defs><style>.cls-1{fill:none}.cls-2{clip-path:url(#clip-path)}.cls-3{fill:#ea6248}</style><clipPath id="clip-path"><path class="cls-1" d="M3.59 0H60.4v64H3.59z"/></clipPath></defs><title>icons</title><g class="cls-2"><path class="cls-3" d="M60.25.3a1.17 1.17 0 0 0-.9-.28L24 4.6a1.14 1.14 0 0 0-1 1.13V47.1a11.3 11.3 0 0 0-8.55-3.74c-6 0-10.84 4.32-10.84 9.64s4.85 9.63 10.84 9.63S25.27 58.32 25.27 53a8.32 8.32 0 0 0-.08-1.12 1.17 1.17 0 0 0 .08-.4V18.4l33.08-4.28v21.57A11.31 11.31 0 0 0 49.79 32C43.81 32 39 36.27 39 41.59s4.85 9.63 10.83 9.63 10.84-4.31 10.84-9.63V1.19a1.14 1.14 0 0 0-.42-.89zm0 0"/></g></svg>