<svg id="Layer_1" data-name="Layer 1" xmlns="http://www.w3.org/2000/svg" viewBox="0 0 64 64"><defs><style>.cls-1{fill:#ead8bb}.cls-2{fill:#6b4842}.cls-3{fill:#513531}.cls-4{fill:#d3bea1}.cls-5{fill:#dd352e}.cls-6{fill:#b02721}</style></defs><title>icons</title><path class="cls-1" d="M13.24 0a5 5 0 0 0-4.93 4.41v1.1a4.42 4.42 0 0 0 4.41 4.41h6.62l2.21-4.41h13.21L32.6 9.84a.06.06 0 0 0 .05.09h23.07V0zm0 0"/><path class="cls-2" d="M32.56 9.93v28.91a.55.55 0 0 1-1 .29l-5.6-9.33-5.6 9.33a.55.55 0 0 1-1-.29V9.93h-6.67a4.42 4.42 0 0 1-4.41-4.41v54A4.46 4.46 0 0 0 12.74 64h43V9.93zm0 0"/><path class="cls-3" d="M13.79 9.93h-1.1a4.42 4.42 0 0 1-4.41-4.41v54A4.46 4.46 0 0 0 12.74 64h1.06zm0 0"/><path class="cls-4" d="M55.72 2.21h-9.93a1.1 1.1 0 1 0 0 2.2h9.93zm0 3.31H46.9a1.1 1.1 0 1 0 0 2.21h8.83zm0 0"/><path class="cls-5" d="M21.52 5.52l-2.21 4.41v28.91a.55.55 0 0 0 1 .29l5.6-9.33 5.6 9.33a.55.55 0 0 0 1-.29V9.93l2.2-4.41zm0 0"/><path class="cls-6" d="M21.52 5.52l-2.21 4.41h13.25l2.2-4.41zm0 0"/></svg>