<svg id="Layer_1" data-name="Layer 1" xmlns="http://www.w3.org/2000/svg" viewBox="0 0 64 64"><defs><style>.cls-1,.cls-4{fill:none}.cls-2{fill:#556080}.cls-3{fill:#465066}.cls-4{stroke:#424a60;stroke-linecap:round;stroke-linejoin:round;stroke-width:1.6px}.cls-5{fill:#d75a4a}.cls-6{fill:#7383bf}.cls-7{fill:#efce4a}.cls-8{fill:#af903a}.cls-9{fill:#f9ee2b}.cls-10{clip-path:url(#clip-path)}</style><clipPath id="clip-path"><path class="cls-1" d="M0 1.52h64v60.95H0z"/></clipPath></defs><title>icons</title><path class="cls-2" d="M21.94 53.94L0 61.26V8.84l21.94-7.32zm0 0"/><path class="cls-3" d="M63.39 51.51l-20.73 11v-50l20.73-11zm0 0"/><path class="cls-4" d="M12.19 21.03v3.65"/><path class="cls-5" d="M17.07 16.16a4.87 4.87 0 1 1-4.87-4.88 4.88 4.88 0 0 1 4.87 4.88zm0 0"/><path class="cls-6" d="M38.3 41.14a1.22 1.22 0 1 1 .46-2.39 17.11 17.11 0 0 0 3.9.33V12.49l-20.73-11v34.44c.76-.09 1.54-.16 2.34-.17a1.22 1.22 0 0 1 0 2.44 20.94 20.94 0 0 0-2.39.19v15.55l20.73 8.54v-21h-.51a20 20 0 0 1-3.86-.39zM35 39a1.22 1.22 0 0 1-1.12.74 1.27 1.27 0 0 1-.46-.09c-.44-.18-.75-.33-.92-.41-1.2-.3-2.37-.55-3.5-.72a1.22 1.22 0 1 1 .37-2.41c1.24.19 2.55.46 3.87.8l.25.09s.33.17.87.39A1.22 1.22 0 0 1 35 39zm0 0"/><path class="cls-7" d="M19.18 36.45a1.22 1.22 0 1 0 .62 2.36 18.24 18.24 0 0 1 2.13-.42v-2.46a21.13 21.13 0 0 0-2.76.52zm-4.79 2.06A16.87 16.87 0 0 0 10.45 42a1.22 1.22 0 0 0 1.86 1.57 14.47 14.47 0 0 1 3.38-2.95 1.22 1.22 0 0 0-1.29-2.07zM9.3 45.74a1.23 1.23 0 0 0-1.62.59 19.36 19.36 0 0 0-1.57 5 1.21 1.21 0 0 0 1 1.37h.17a1.22 1.22 0 0 0 1.21-1 17.07 17.07 0 0 1 1.37-4.31 1.22 1.22 0 0 0-.59-1.62zm0 0"/><path class="cls-8" d="M57.38 17.27a1.26 1.26 0 0 0-1.24-1.2 1.22 1.22 0 0 0-1.2 1.24v1.24c0 1.22 0 2.41-.11 3.53a1.22 1.22 0 0 0 1.17 1.3h.08a1.23 1.23 0 0 0 1.22-1.14c.07-1.17.11-2.41.11-3.68v-1.29zM55.7 25.8a1.23 1.23 0 0 0-1.42 1A24.81 24.81 0 0 1 53 31.24a1.22 1.22 0 0 0 .69 1.58 1.26 1.26 0 0 0 .44.08 1.23 1.23 0 0 0 1.14-.77 27.6 27.6 0 0 0 1.37-4.91 1.22 1.22 0 0 0-1-1.42zm-4.86 9.35a10.27 10.27 0 0 1-3.34 2.75 1.22 1.22 0 0 0 .56 2.3 1.25 1.25 0 0 0 .55-.13 12.6 12.6 0 0 0 4.12-3.4 1.22 1.22 0 1 0-1.9-1.52zM43.29 39h-.62v2.43h.82a1.22 1.22 0 1 0-.2-2.43zm0 0"/><path class="cls-9" d="M34.34 37.4c-.53-.23-.85-.38-.87-.39a1.07 1.07 0 0 0-.25-.09c-1.32-.34-2.63-.61-3.87-.8a1.22 1.22 0 1 0-.35 2.41 35.23 35.23 0 0 1 3.5.72l.91.4a1.22 1.22 0 1 0 .94-2.25zm4.42 1.34a1.22 1.22 0 1 0-.46 2.39 20 20 0 0 0 3.85.39h.51v-2.45a17.11 17.11 0 0 1-3.9-.33zM25.53 37a1.22 1.22 0 0 0-1.22-1.2 22.9 22.9 0 0 0-2.34.17v2.45a22.45 22.45 0 0 1 2.39-.18A1.23 1.23 0 0 0 25.53 37zm0 0"/><g class="cls-10"><path class="cls-4" d="M9.75 28.35l4.88 4.87m-4.88 0l4.88-4.87"/></g></svg>