<svg id="Layer_1" data-name="Layer 1" xmlns="http://www.w3.org/2000/svg" viewBox="0 0 64 64"><defs><style>.cls-1,.cls-8{fill:none}.cls-2{fill:#424a60}.cls-3{fill:#e7eced}.cls-4{fill:#ebba16}.cls-5{fill:#c7cac7}.cls-6{fill:#fff}.cls-7{clip-path:url(#clip-path)}.cls-8{stroke:#424a60;stroke-linecap:round;stroke-miterlimit:10;stroke-width:1.6px}</style><clipPath id="clip-path"><path class="cls-1" d="M1.58 0h60.84v64H1.58z"/></clipPath></defs><title>icons</title><path class="cls-2" d="M62.16 11.06v51.36H1.58V.53h50zm0 0"/><path class="cls-3" d="M10.8 34.77h40.82v27.66H10.8z"/><path class="cls-4" d="M10.8 34.77h40.82v15.85H10.8z"/><path class="cls-5" d="M13.43.53h34.24V21.6H13.43z"/><path class="cls-6" d="M17.39 41.35h9.21a1.32 1.32 0 0 0 0-2.64h-9.21a1.32 1.32 0 1 0 0 2.64zM30.55 44H17.39a1.32 1.32 0 1 0 0 2.64h13.16a1.32 1.32 0 0 0 0-2.64zm4.88.37a1.35 1.35 0 0 0-1.85 0 1.3 1.3 0 0 0-.4.93 1.38 1.38 0 0 0 .39.94 1.36 1.36 0 0 0 .93.38 1.38 1.38 0 0 0 .93-.38 1.4 1.4 0 0 0 .39-.94 1.36 1.36 0 0 0-.39-.93zm0 0"/><g class="cls-7"><path class="cls-8" d="M37.14 5.79h5.27v10.54h-5.27z"/></g><path class="cls-3" d="M33.18 21.6H13.43V.53h9.22zm0 0"/></svg>